solid ascii
  facet normal 0.000000e+000 1.000000e+000 0.000000e+000
    outer loop
      vertex   -1.727500e+002 3.589828e+002 3.650000e+001
      vertex   -1.727500e+002 3.589828e+002 1.500000e+000
      vertex   -1.757250e+002 3.589828e+002 3.650000e+001
    endloop
  endfacet
  facet normal 0.000000e+000 8.469477e-002 0.000000e+000
    outer loop
      vertex   -1.757250e+002 3.589828e+002 3.650000e+001
      vertex   -1.727500e+002 3.589828e+002 1.500000e+000
      vertex   -1.757250e+002 3.589828e+002 1.500000e+000
    endloop
  endfacet
  facet normal -7.071057e-001 -7.071078e-001 0.000000e+000
    outer loop
      vertex   -1.657500e+002 3.490079e+002 1.499999e+000
      vertex   -1.657500e+002 3.490079e+002 3.650000e+001
      vertex   -1.757250e+002 3.589828e+002 1.500000e+000
    endloop
  endfacet
  facet normal -2.643362e-001 -2.643371e-001 0.000000e+000
    outer loop
      vertex   -1.757250e+002 3.589828e+002 1.500000e+000
      vertex   -1.657500e+002 3.490079e+002 3.650000e+001
      vertex   -1.757250e+002 3.589828e+002 3.650000e+001
    endloop
  endfacet
  facet normal -1.000000e+000 0.000000e+000 0.000000e+000
    outer loop
      vertex   -1.657500e+002 3.590000e+002 3.650000e+001
      vertex   -1.657500e+002 3.490079e+002 3.650000e+001
      vertex   -1.657500e+002 3.590000e+002 4.150000e+001
    endloop
  endfacet
  facet normal -4.474954e-001 -0.000000e+000 0.000000e+000
    outer loop
      vertex   -1.657500e+002 3.590000e+002 4.150000e+001
      vertex   -1.657500e+002 3.490079e+002 3.650000e+001
      vertex   -1.657500e+002 3.183333e+002 4.150000e+001
    endloop
  endfacet
  facet normal -6.852953e-001 0.000000e+000 0.000000e+000
    outer loop
      vertex   -1.657500e+002 3.183333e+002 4.150000e+001
      vertex   -1.657500e+002 3.490079e+002 3.650000e+001
      vertex   -1.657500e+002 3.490079e+002 1.499999e+000
    endloop
  endfacet
  facet normal -9.021249e-001 0.000000e+000 -0.000000e+000
    outer loop
      vertex   -1.657500e+002 3.183333e+002 4.150000e+001
      vertex   -1.657500e+002 3.490079e+002 1.499999e+000
      vertex   -1.657500e+002 2.979914e+002 1.499999e+000
    endloop
  endfacet
  facet normal -8.913587e-001 -0.000000e+000 0.000000e+000
    outer loop
      vertex   -1.657500e+002 3.183333e+002 4.150000e+001
      vertex   -1.657500e+002 2.979914e+002 1.499999e+000
      vertex   -1.657500e+002 2.776667e+002 4.150000e+001
    endloop
  endfacet
  facet normal -9.020941e-001 0.000000e+000 -0.000000e+000
    outer loop
      vertex   -1.657500e+002 2.776667e+002 4.150000e+001
      vertex   -1.657500e+002 2.979914e+002 1.499999e+000
      vertex   -1.657500e+002 2.469750e+002 1.499999e+000
    endloop
  endfacet
  facet normal -6.851636e-001 0.000000e+000 0.000000e+000
    outer loop
      vertex   -1.657500e+002 2.776667e+002 4.150000e+001
      vertex   -1.657500e+002 2.469750e+002 1.499999e+000
      vertex   -1.657500e+002 2.469750e+002 3.650000e+001
    endloop
  endfacet
  facet normal -1.000000e+000 0.000000e+000 0.000000e+000
    outer loop
      vertex   -1.657500e+002 2.370000e+002 3.650000e+001
      vertex   -1.657500e+002 2.370000e+002 4.150000e+001
      vertex   -1.657500e+002 2.469750e+002 3.650000e+001
    endloop
  endfacet
  facet normal -5.860226e-001 0.000000e+000 0.000000e+000
    outer loop
      vertex   -1.657500e+002 2.469750e+002 3.650000e+001
      vertex   -1.657500e+002 2.370000e+002 4.150000e+001
      vertex   -1.657500e+002 2.776667e+002 4.150000e+001
    endloop
  endfacet
  facet normal -0.000000e+000 0.000000e+000 7.732701e-001
    outer loop
      vertex   -2.133398e+002 2.481053e+002 1.499999e+000
      vertex   -2.042336e+002 2.370000e+002 1.499999e+000
      vertex   -2.103398e+002 2.481053e+002 1.499999e+000
    endloop
  endfacet
  facet normal -0.000000e+000 0.000000e+000 8.762705e-001
    outer loop
      vertex   -2.103398e+002 2.481053e+002 1.499999e+000
      vertex   -2.042336e+002 2.370000e+002 1.499999e+000
      vertex   -2.063398e+002 2.481053e+002 1.499999e+000
    endloop
  endfacet
  facet normal 0.000000e+000 0.000000e+000 9.950372e-001
    outer loop
      vertex   -2.103398e+002 2.481053e+002 1.499999e+000
      vertex   -2.063398e+002 2.481053e+002 1.499999e+000
      vertex   -2.063398e+002 2.881053e+002 1.499999e+000
    endloop
  endfacet
  facet normal 1.886877e-008 0.000000e+000 5.813954e-001
    outer loop
      vertex   -2.133398e+002 2.881053e+002 1.499999e+000
      vertex   -2.427250e+002 2.469829e+002 1.500000e+000
      vertex   -2.133398e+002 2.481053e+002 1.499999e+000
    endloop
  endfacet
  facet normal 1.448180e-008 1.448180e-008 4.632660e-001
    outer loop
      vertex   -2.133398e+002 2.481053e+002 1.499999e+000
      vertex   -2.427250e+002 2.469829e+002 1.500000e+000
      vertex   -2.327421e+002 2.370000e+002 1.500000e+000
    endloop
  endfacet
  facet normal 3.298703e-008 2.704916e-008 9.860948e-001
    outer loop
      vertex   -2.133398e+002 2.481053e+002 1.499999e+000
      vertex   -2.327421e+002 2.370000e+002 1.500000e+000
      vertex   -2.042336e+002 2.370000e+002 1.499999e+000
    endloop
  endfacet
  facet normal 0.000000e+000 -0.000000e+000 9.803038e-001
    outer loop
      vertex   -2.103398e+002 2.881053e+002 1.499999e+000
      vertex   -2.042500e+002 3.183333e+002 1.499999e+000
      vertex   -2.133398e+002 2.881053e+002 1.499999e+000
    endloop
  endfacet
  facet normal 0.000000e+000 -0.000000e+000 9.994740e-001
    outer loop
      vertex   -2.133398e+002 2.881053e+002 1.499999e+000
      vertex   -2.042500e+002 3.183333e+002 1.499999e+000
      vertex   -2.427500e+002 2.980000e+002 1.499999e+000
    endloop
  endfacet
  facet normal 6.016788e-009 1.788376e-008 9.565401e-001
    outer loop
      vertex   -2.133398e+002 2.881053e+002 1.499999e+000
      vertex   -2.427500e+002 2.980000e+002 1.499999e+000
      vertex   -2.427250e+002 2.469829e+002 1.500000e+000
    endloop
  endfacet
  facet normal -1.869256e-008 1.566279e-010 8.868759e-003
    outer loop
      vertex   -2.427250e+002 2.469829e+002 1.500000e+000
      vertex   -2.427500e+002 2.980000e+002 1.499999e+000
      vertex   -2.427500e+002 2.440000e+002 1.500000e+000
    endloop
  endfacet
  facet normal 0.000000e+000 0.000000e+000 8.378865e-003
    outer loop
      vertex   -2.427250e+002 2.469829e+002 1.500000e+000
      vertex   -2.427500e+002 2.440000e+002 1.500000e+000
      vertex   -2.427250e+002 2.440000e+002 1.500000e+000
    endloop
  endfacet
  facet normal 0.000000e+000 0.000000e+000 1.294121e-001
    outer loop
      vertex   -2.042500e+002 3.183333e+002 1.499999e+000
      vertex   -2.103398e+002 2.881053e+002 1.499999e+000
      vertex   -2.063398e+002 2.881053e+002 1.499999e+000
    endloop
  endfacet
  facet normal 0.000000e+000 0.000000e+000 9.950372e-001
    outer loop
      vertex   -2.063398e+002 2.881053e+002 1.499999e+000
      vertex   -2.103398e+002 2.881053e+002 1.499999e+000
      vertex   -2.103398e+002 2.481053e+002 1.499999e+000
    endloop
  endfacet
  facet normal -0.000000e+000 0.000000e+000 9.824849e-001
    outer loop
      vertex   -2.063398e+002 2.481053e+002 1.499999e+000
      vertex   -2.042336e+002 2.370000e+002 1.499999e+000
      vertex   -2.033398e+002 2.481053e+002 1.499999e+000
    endloop
  endfacet
  facet normal -0.000000e+000 0.000000e+000 9.967774e-001
    outer loop
      vertex   -2.033398e+002 2.481053e+002 1.499999e+000
      vertex   -2.042336e+002 2.370000e+002 1.499999e+000
      vertex   -1.993398e+002 2.481053e+002 1.499999e+000
    endloop
  endfacet
  facet normal 0.000000e+000 0.000000e+000 9.950372e-001
    outer loop
      vertex   -2.033398e+002 2.481053e+002 1.499999e+000
      vertex   -1.993398e+002 2.481053e+002 1.499999e+000
      vertex   -1.993398e+002 2.881053e+002 1.499999e+000
    endloop
  endfacet
  facet normal 0.000000e+000 0.000000e+000 9.976187e-001
    outer loop
      vertex   -2.063398e+002 2.881053e+002 1.499999e+000
      vertex   -2.033398e+002 2.881053e+002 1.499999e+000
      vertex   -2.042500e+002 3.183333e+002 1.499999e+000
    endloop
  endfacet
  facet normal 0.000000e+000 0.000000e+000 1.305562e-001
    outer loop
      vertex   -2.042500e+002 3.183333e+002 1.499999e+000
      vertex   -2.033398e+002 2.881053e+002 1.499999e+000
      vertex   -1.993398e+002 2.881053e+002 1.499999e+000
    endloop
  endfacet
  facet normal 0.000000e+000 0.000000e+000 9.477045e-002
    outer loop
      vertex   -2.042500e+002 3.183333e+002 1.499999e+000
      vertex   -1.993398e+002 2.881053e+002 1.499999e+000
      vertex   -1.963398e+002 2.881053e+002 1.499999e+000
    endloop
  endfacet
  facet normal -0.000000e+000 0.000000e+000 1.000000e+000
    outer loop
      vertex   -2.033398e+002 2.881053e+002 1.499999e+000
      vertex   -2.033398e+002 2.481053e+002 1.499999e+000
      vertex   -1.993398e+002 2.881053e+002 1.499999e+000
    endloop
  endfacet
  facet normal -0.000000e+000 6.492347e-008 7.560177e-001
    outer loop
      vertex   -1.853398e+002 2.481053e+002 1.499999e+000
      vertex   -1.757250e+002 2.370000e+002 1.500000e+000
      vertex   -1.823398e+002 2.481053e+002 1.499999e+000
    endloop
  endfacet
  facet normal 5.015067e-009 7.360838e-008 8.223661e-001
    outer loop
      vertex   -1.823398e+002 2.481053e+002 1.499999e+000
      vertex   -1.757250e+002 2.370000e+002 1.500000e+000
      vertex   -1.657500e+002 2.469750e+002 1.499999e+000
    endloop
  endfacet
  facet normal -0.000000e+000 0.000000e+000 9.976871e-001
    outer loop
      vertex   -1.823398e+002 2.481053e+002 1.499999e+000
      vertex   -1.657500e+002 2.469750e+002 1.499999e+000
      vertex   -1.823398e+002 2.881053e+002 1.499999e+000
    endloop
  endfacet
  facet normal -0.000000e+000 0.000000e+000 9.881622e-001
    outer loop
      vertex   -1.823398e+002 2.881053e+002 1.499999e+000
      vertex   -1.657500e+002 2.469750e+002 1.499999e+000
      vertex   -1.657500e+002 2.979914e+002 1.499999e+000
    endloop
  endfacet
  facet normal 0.000000e+000 -0.000000e+000 9.959720e-001
    outer loop
      vertex   -1.823398e+002 2.881053e+002 1.499999e+000
      vertex   -1.657500e+002 2.979914e+002 1.499999e+000
      vertex   -2.042500e+002 3.183333e+002 1.499999e+000
    endloop
  endfacet
  facet normal -0.000000e+000 0.000000e+000 9.163349e-001
    outer loop
      vertex   -2.042500e+002 3.183333e+002 1.499999e+000
      vertex   -1.657500e+002 2.979914e+002 1.499999e+000
      vertex   -1.657500e+002 3.490079e+002 1.499999e+000
    endloop
  endfacet
  facet normal 1.196696e-008 -1.501989e-008 2.822698e-001
    outer loop
      vertex   -2.042500e+002 3.183333e+002 1.499999e+000
      vertex   -1.657500e+002 3.490079e+002 1.499999e+000
      vertex   -1.757250e+002 3.589828e+002 1.500000e+000
    endloop
  endfacet
  facet normal 0.000000e+000 1.478085e-008 1.721193e-001
    outer loop
      vertex   -1.757250e+002 2.370000e+002 1.500000e+000
      vertex   -1.853398e+002 2.481053e+002 1.499999e+000
      vertex   -1.893398e+002 2.481053e+002 1.499999e+000
    endloop
  endfacet
  facet normal 0.000000e+000 0.000000e+000 9.950372e-001
    outer loop
      vertex   -1.893398e+002 2.481053e+002 1.499999e+000
      vertex   -1.853398e+002 2.481053e+002 1.499999e+000
      vertex   -1.853398e+002 2.881053e+002 1.499999e+000
    endloop
  endfacet
  facet normal 0.000000e+000 0.000000e+000 9.950376e-002
    outer loop
      vertex   -1.893398e+002 2.481053e+002 1.499999e+000
      vertex   -1.853398e+002 2.881053e+002 1.499999e+000
      vertex   -1.893398e+002 2.881053e+002 1.499999e+000
    endloop
  endfacet
  facet normal 0.000000e+000 -0.000000e+000 8.968336e-001
    outer loop
      vertex   -1.893398e+002 2.881053e+002 1.499999e+000
      vertex   -1.853398e+002 2.881053e+002 1.499999e+000
      vertex   -2.042500e+002 3.183333e+002 1.499999e+000
    endloop
  endfacet
  facet normal 0.000000e+000 0.000000e+000 8.968336e-001
    outer loop
      vertex   -1.893398e+002 2.881053e+002 1.499999e+000
      vertex   -2.042500e+002 3.183333e+002 1.499999e+000
      vertex   -1.923398e+002 2.881053e+002 1.499999e+000
    endloop
  endfacet
  facet normal 0.000000e+000 0.000000e+000 9.303860e-001
    outer loop
      vertex   -1.923398e+002 2.881053e+002 1.499999e+000
      vertex   -2.042500e+002 3.183333e+002 1.499999e+000
      vertex   -1.963398e+002 2.881053e+002 1.499999e+000
    endloop
  endfacet
  facet normal 0.000000e+000 0.000000e+000 9.950372e-001
    outer loop
      vertex   -1.923398e+002 2.881053e+002 1.499999e+000
      vertex   -1.963398e+002 2.881053e+002 1.499999e+000
      vertex   -1.963398e+002 2.481053e+002 1.499999e+000
    endloop
  endfacet
  facet normal 0.000000e+000 -0.000000e+000 8.477761e-001
    outer loop
      vertex   -1.853398e+002 2.881053e+002 1.499999e+000
      vertex   -1.823398e+002 2.881053e+002 1.499999e+000
      vertex   -2.042500e+002 3.183333e+002 1.499999e+000
    endloop
  endfacet
  facet normal -0.000000e+000 0.000000e+000 9.150904e-001
    outer loop
      vertex   -1.993398e+002 2.481053e+002 1.499999e+000
      vertex   -2.042336e+002 2.370000e+002 1.499999e+000
      vertex   -1.963398e+002 2.481053e+002 1.499999e+000
    endloop
  endfacet
  facet normal -0.000000e+000 0.000000e+000 8.150725e-001
    outer loop
      vertex   -1.963398e+002 2.481053e+002 1.499999e+000
      vertex   -2.042336e+002 2.370000e+002 1.499999e+000
      vertex   -1.923398e+002 2.481053e+002 1.499999e+000
    endloop
  endfacet
  facet normal 0.000000e+000 0.000000e+000 9.950372e-001
    outer loop
      vertex   -1.963398e+002 2.481053e+002 1.499999e+000
      vertex   -1.923398e+002 2.481053e+002 1.499999e+000
      vertex   -1.923398e+002 2.881053e+002 1.499999e+000
    endloop
  endfacet
  facet normal -2.114427e-008 2.835736e-008 6.320741e-001
    outer loop
      vertex   -1.757250e+002 2.370000e+002 1.500000e+000
      vertex   -1.893398e+002 2.481053e+002 1.499999e+000
      vertex   -2.042336e+002 2.370000e+002 1.499999e+000
    endloop
  endfacet
  facet normal 0.000000e+000 0.000000e+000 1.102041e-001
    outer loop
      vertex   -2.042336e+002 2.370000e+002 1.499999e+000
      vertex   -1.893398e+002 2.481053e+002 1.499999e+000
      vertex   -1.923398e+002 2.481053e+002 1.499999e+000
    endloop
  endfacet
  facet normal 0.000000e+000 -0.000000e+000 1.000000e+000
    outer loop
      vertex   -1.727500e+002 3.589828e+002 1.500000e+000
      vertex   -1.727500e+002 3.590000e+002 1.500000e+000
      vertex   -1.757250e+002 3.589828e+002 1.500000e+000
    endloop
  endfacet
  facet normal -1.927373e-010 3.343238e-008 6.366141e-003
    outer loop
      vertex   -1.757250e+002 3.589828e+002 1.500000e+000
      vertex   -1.727500e+002 3.590000e+002 1.500000e+000
      vertex   -2.042500e+002 3.590000e+002 1.499999e+000
    endloop
  endfacet
  facet normal -2.737860e-008 0.000000e+000 8.189111e-001
    outer loop
      vertex   -1.757250e+002 3.589828e+002 1.500000e+000
      vertex   -2.042500e+002 3.590000e+002 1.499999e+000
      vertex   -2.042500e+002 3.183333e+002 1.499999e+000
    endloop
  endfacet
  facet normal 1.921160e-008 -0.000000e+000 5.739691e-001
    outer loop
      vertex   -2.042500e+002 3.183333e+002 1.499999e+000
      vertex   -2.042500e+002 3.590000e+002 1.499999e+000
      vertex   -2.327421e+002 3.589828e+002 1.500000e+000
    endloop
  endfacet
  facet normal 3.897994e-009 -3.898001e-009 2.826059e-001
    outer loop
      vertex   -2.042500e+002 3.183333e+002 1.499999e+000
      vertex   -2.327421e+002 3.589828e+002 1.500000e+000
      vertex   -2.427250e+002 3.490000e+002 1.500000e+000
    endloop
  endfacet
  facet normal 1.822430e-011 3.196110e-009 6.019511e-004
    outer loop
      vertex   -2.042500e+002 3.590000e+002 1.499999e+000
      vertex   -2.357500e+002 3.590000e+002 1.500000e+000
      vertex   -2.327421e+002 3.589828e+002 1.500000e+000
    endloop
  endfacet
  facet normal 0.000000e+000 0.000000e+000 5.701931e-003
    outer loop
      vertex   -2.327421e+002 3.589828e+002 1.500000e+000
      vertex   -2.357500e+002 3.590000e+002 1.500000e+000
      vertex   -2.357500e+002 3.589828e+002 1.500000e+000
    endloop
  endfacet
  facet normal 0.000000e+000 0.000000e+000 1.000000e+000
    outer loop
      vertex   -2.427250e+002 3.520000e+002 1.500000e+000
      vertex   -2.427500e+002 3.520000e+002 1.500000e+000
      vertex   -2.427250e+002 3.490000e+002 1.500000e+000
    endloop
  endfacet
  facet normal -1.869885e-008 -1.557857e-010 8.821068e-003
    outer loop
      vertex   -2.427250e+002 3.490000e+002 1.500000e+000
      vertex   -2.427500e+002 3.520000e+002 1.500000e+000
      vertex   -2.427500e+002 2.980000e+002 1.499999e+000
    endloop
  endfacet
  facet normal 7.727907e-009 -1.463234e-008 7.822967e-001
    outer loop
      vertex   -2.427250e+002 3.490000e+002 1.500000e+000
      vertex   -2.427500e+002 2.980000e+002 1.499999e+000
      vertex   -2.042500e+002 3.183333e+002 1.499999e+000
    endloop
  endfacet
  facet normal -1.000000e+000 -0.000000e+000 -0.000000e+000
    outer loop
      vertex   -2.427250e+002 3.520000e+002 3.650000e+001
      vertex   -2.427250e+002 3.520000e+002 1.500000e+000
      vertex   -2.427250e+002 3.490000e+002 3.650000e+001
    endloop
  endfacet
  facet normal -8.540114e-002 0.000000e+000 0.000000e+000
    outer loop
      vertex   -2.427250e+002 3.490000e+002 3.650000e+001
      vertex   -2.427250e+002 3.520000e+002 1.500000e+000
      vertex   -2.427250e+002 3.490000e+002 1.500000e+000
    endloop
  endfacet
  facet normal 7.071062e-001 -7.071073e-001 0.000000e+000
    outer loop
      vertex   -2.427250e+002 3.490000e+002 3.650000e+001
      vertex   -2.427250e+002 3.490000e+002 1.500000e+000
      vertex   -2.327421e+002 3.589828e+002 3.650000e+001
    endloop
  endfacet
  facet normal 2.645157e-001 -2.645161e-001 0.000000e+000
    outer loop
      vertex   -2.327421e+002 3.589828e+002 3.650000e+001
      vertex   -2.427250e+002 3.490000e+002 1.500000e+000
      vertex   -2.327421e+002 3.589828e+002 1.500000e+000
    endloop
  endfacet
  facet normal 0.000000e+000 1.000000e+000 0.000000e+000
    outer loop
      vertex   -2.357500e+002 3.589828e+002 1.500000e+000
      vertex   -2.357500e+002 3.589828e+002 3.650000e+001
      vertex   -2.327421e+002 3.589828e+002 1.500000e+000
    endloop
  endfacet
  facet normal 0.000000e+000 8.562320e-002 -0.000000e+000
    outer loop
      vertex   -2.327421e+002 3.589828e+002 1.500000e+000
      vertex   -2.357500e+002 3.589828e+002 3.650000e+001
      vertex   -2.327421e+002 3.589828e+002 3.650000e+001
    endloop
  endfacet
  facet normal 1.000000e+000 -0.000000e+000 0.000000e+000
    outer loop
      vertex   -2.357500e+002 3.589828e+002 3.650000e+001
      vertex   -2.357500e+002 3.589828e+002 1.500000e+000
      vertex   -2.357500e+002 3.590000e+002 3.650000e+001
    endloop
  endfacet
  facet normal 4.900250e-004 0.000000e+000 0.000000e+000
    outer loop
      vertex   -2.357500e+002 3.590000e+002 3.650000e+001
      vertex   -2.357500e+002 3.589828e+002 1.500000e+000
      vertex   -2.357500e+002 3.590000e+002 1.500000e+000
    endloop
  endfacet
  facet normal -7.071068e-001 7.071068e-001 0.000000e+000
    outer loop
      vertex   -1.657500e+002 2.469750e+002 1.499999e+000
      vertex   -1.757250e+002 2.370000e+002 1.500000e+000
      vertex   -1.657500e+002 2.469750e+002 3.650000e+001
    endloop
  endfacet
  facet normal -6.558399e-001 6.558399e-001 0.000000e+000
    outer loop
      vertex   -1.657500e+002 2.469750e+002 3.650000e+001
      vertex   -1.757250e+002 2.370000e+002 1.500000e+000
      vertex   -1.757250e+002 2.370000e+002 3.650000e+001
    endloop
  endfacet
  facet normal 7.071068e-001 7.071068e-001 0.000000e+000
    outer loop
      vertex   -2.327421e+002 2.370000e+002 3.650000e+001
      vertex   -2.327421e+002 2.370000e+002 1.500000e+000
      vertex   -2.427250e+002 2.469829e+002 3.650000e+001
    endloop
  endfacet
  facet normal 2.645161e-001 2.645161e-001 0.000000e+000
    outer loop
      vertex   -2.427250e+002 2.469829e+002 3.650000e+001
      vertex   -2.327421e+002 2.370000e+002 1.500000e+000
      vertex   -2.427250e+002 2.469829e+002 1.500000e+000
    endloop
  endfacet
  facet normal -1.000000e+000 0.000000e+000 0.000000e+000
    outer loop
      vertex   -2.427250e+002 2.440000e+002 1.500000e+000
      vertex   -2.427250e+002 2.440000e+002 3.650000e+001
      vertex   -2.427250e+002 2.469829e+002 1.500000e+000
    endloop
  endfacet
  facet normal -8.491687e-002 0.000000e+000 0.000000e+000
    outer loop
      vertex   -2.427250e+002 2.469829e+002 1.500000e+000
      vertex   -2.427250e+002 2.440000e+002 3.650000e+001
      vertex   -2.427250e+002 2.469829e+002 3.650000e+001
    endloop
  endfacet
  facet normal -0.000000e+000 0.000000e+000 1.000000e+000
    outer loop
      vertex   -2.427500e+002 2.440000e+002 3.650000e+001
      vertex   -2.427500e+002 2.370000e+002 3.650000e+001
      vertex   -2.427250e+002 2.440000e+002 3.650000e+001
    endloop
  endfacet
  facet normal 0.000000e+000 0.000000e+000 8.208142e-001
    outer loop
      vertex   -2.427250e+002 2.440000e+002 3.650000e+001
      vertex   -2.427500e+002 2.370000e+002 3.650000e+001
      vertex   -2.327421e+002 2.370000e+002 3.650000e+001
    endloop
  endfacet
  facet normal -0.000000e+000 0.000000e+000 8.187695e-001
    outer loop
      vertex   -2.427250e+002 2.440000e+002 3.650000e+001
      vertex   -2.327421e+002 2.370000e+002 3.650000e+001
      vertex   -2.427250e+002 2.469829e+002 3.650000e+001
    endloop
  endfacet
  facet normal 0.000000e+000 1.000000e+000 -0.000000e+000
    outer loop
      vertex   -1.757250e+002 2.370000e+002 1.500000e+000
      vertex   -2.042336e+002 2.370000e+002 1.499999e+000
      vertex   -1.757250e+002 2.370000e+002 3.650000e+001
    endloop
  endfacet
  facet normal 0.000000e+000 8.727366e-001 0.000000e+000
    outer loop
      vertex   -1.757250e+002 2.370000e+002 3.650000e+001
      vertex   -2.042336e+002 2.370000e+002 1.499999e+000
      vertex   -2.042500e+002 2.370000e+002 4.150000e+001
    endloop
  endfacet
  facet normal 0.000000e+000 5.957277e-001 -0.000000e+000
    outer loop
      vertex   -1.757250e+002 2.370000e+002 3.650000e+001
      vertex   -2.042500e+002 2.370000e+002 4.150000e+001
      vertex   -1.657500e+002 2.370000e+002 4.150000e+001
    endloop
  endfacet
  facet normal -0.000000e+000 1.000000e+000 0.000000e+000
    outer loop
      vertex   -2.327421e+002 2.370000e+002 1.500000e+000
      vertex   -2.327421e+002 2.370000e+002 3.650000e+001
      vertex   -2.042336e+002 2.370000e+002 1.499999e+000
    endloop
  endfacet
  facet normal 0.000000e+000 6.312220e-001 0.000000e+000
    outer loop
      vertex   -2.042336e+002 2.370000e+002 1.499999e+000
      vertex   -2.327421e+002 2.370000e+002 3.650000e+001
      vertex   -2.042500e+002 2.370000e+002 4.150000e+001
    endloop
  endfacet
  facet normal 0.000000e+000 1.000000e+000 0.000000e+000
    outer loop
      vertex   -2.427500e+002 2.370000e+002 3.650000e+001
      vertex   -2.427500e+002 2.370000e+002 4.150000e+001
      vertex   -2.327421e+002 2.370000e+002 3.650000e+001
    endloop
  endfacet
  facet normal 0.000000e+000 5.948280e-001 -0.000000e+000
    outer loop
      vertex   -2.327421e+002 2.370000e+002 3.650000e+001
      vertex   -2.427500e+002 2.370000e+002 4.150000e+001
      vertex   -2.042500e+002 2.370000e+002 4.150000e+001
    endloop
  endfacet
  facet normal 0.000000e+000 8.939787e-001 0.000000e+000
    outer loop
      vertex   -1.657500e+002 2.370000e+002 4.150000e+001
      vertex   -1.657500e+002 2.370000e+002 3.650000e+001
      vertex   -1.757250e+002 2.370000e+002 3.650000e+001
    endloop
  endfacet
  facet normal 0.000000e+000 1.000000e+000 0.000000e+000
    outer loop
      vertex   -2.427250e+002 2.440000e+002 3.650000e+001
      vertex   -2.427250e+002 2.440000e+002 1.500000e+000
      vertex   -2.427500e+002 2.440000e+002 3.650000e+001
    endloop
  endfacet
  facet normal 0.000000e+000 7.141111e-004 0.000000e+000
    outer loop
      vertex   -2.427500e+002 2.440000e+002 3.650000e+001
      vertex   -2.427250e+002 2.440000e+002 1.500000e+000
      vertex   -2.427500e+002 2.440000e+002 1.500000e+000
    endloop
  endfacet
  facet normal -0.000000e+000 0.000000e+000 7.071057e-001
    outer loop
      vertex   -1.757250e+002 3.589828e+002 3.650000e+001
      vertex   -1.657500e+002 3.490079e+002 3.650000e+001
      vertex   -1.727500e+002 3.589828e+002 3.650000e+001
    endloop
  endfacet
  facet normal -0.000000e+000 0.000000e+000 8.199610e-001
    outer loop
      vertex   -1.727500e+002 3.589828e+002 3.650000e+001
      vertex   -1.657500e+002 3.490079e+002 3.650000e+001
      vertex   -1.657500e+002 3.590000e+002 3.650000e+001
    endloop
  endfacet
  facet normal 0.000000e+000 0.000000e+000 9.999970e-001
    outer loop
      vertex   -1.727500e+002 3.589828e+002 3.650000e+001
      vertex   -1.657500e+002 3.590000e+002 3.650000e+001
      vertex   -1.727500e+002 3.590000e+002 3.650000e+001
    endloop
  endfacet
  facet normal -1.000000e+000 0.000000e+000 0.000000e+000
    outer loop
      vertex   -1.727500e+002 3.589828e+002 1.500000e+000
      vertex   -1.727500e+002 3.589828e+002 3.650000e+001
      vertex   -1.727500e+002 3.590000e+002 1.500000e+000
    endloop
  endfacet
  facet normal -4.900250e-004 0.000000e+000 0.000000e+000
    outer loop
      vertex   -1.727500e+002 3.590000e+002 1.500000e+000
      vertex   -1.727500e+002 3.589828e+002 3.650000e+001
      vertex   -1.727500e+002 3.590000e+002 3.650000e+001
    endloop
  endfacet
  facet normal 0.000000e+000 -8.687773e-001 0.000000e+000
    outer loop
      vertex   -2.185000e+002 3.590000e+002 2.650000e+001
      vertex   -2.042500e+002 3.590000e+002 1.499999e+000
      vertex   -1.765000e+002 3.590000e+002 2.650000e+001
    endloop
  endfacet
  facet normal 0.000000e+000 -8.340307e-001 -0.000000e+000
    outer loop
      vertex   -1.765000e+002 3.590000e+002 2.650000e+001
      vertex   -2.042500e+002 3.590000e+002 1.499999e+000
      vertex   -1.727500e+002 3.590000e+002 1.500000e+000
    endloop
  endfacet
  facet normal 0.000000e+000 -4.861342e-001 0.000000e+000
    outer loop
      vertex   -1.765000e+002 3.590000e+002 2.650000e+001
      vertex   -1.727500e+002 3.590000e+002 1.500000e+000
      vertex   -1.727500e+002 3.590000e+002 3.650000e+001
    endloop
  endfacet
  facet normal -0.000000e+000 -9.852117e-001 -0.000000e+000
    outer loop
      vertex   -2.185000e+002 3.590000e+002 3.350000e+001
      vertex   -2.357500e+002 3.590000e+002 3.650000e+001
      vertex   -2.185000e+002 3.590000e+002 2.650000e+001
    endloop
  endfacet
  facet normal -0.000000e+000 -9.969113e-001 0.000000e+000
    outer loop
      vertex   -2.185000e+002 3.590000e+002 2.650000e+001
      vertex   -2.357500e+002 3.590000e+002 3.650000e+001
      vertex   -2.357500e+002 3.590000e+002 1.500000e+000
    endloop
  endfacet
  facet normal 0.000000e+000 -9.009923e-001 -0.000000e+000
    outer loop
      vertex   -2.185000e+002 3.590000e+002 2.650000e+001
      vertex   -2.357500e+002 3.590000e+002 1.500000e+000
      vertex   -2.042500e+002 3.590000e+002 1.499999e+000
    endloop
  endfacet
  facet normal 0.000000e+000 -3.236718e-001 0.000000e+000
    outer loop
      vertex   -2.357500e+002 3.590000e+002 3.650000e+001
      vertex   -2.185000e+002 3.590000e+002 3.350000e+001
      vertex   -2.042500e+002 3.590000e+002 4.150000e+001
    endloop
  endfacet
  facet normal 0.000000e+000 -7.119238e-001 -0.000000e+000
    outer loop
      vertex   -2.042500e+002 3.590000e+002 4.150000e+001
      vertex   -2.185000e+002 3.590000e+002 3.350000e+001
      vertex   -1.765000e+002 3.590000e+002 3.350000e+001
    endloop
  endfacet
  facet normal 0.000000e+000 -1.229490e-001 0.000000e+000
    outer loop
      vertex   -2.042500e+002 3.590000e+002 4.150000e+001
      vertex   -1.765000e+002 3.590000e+002 3.350000e+001
      vertex   -1.727500e+002 3.590000e+002 3.650000e+001
    endloop
  endfacet
  facet normal 0.000000e+000 -5.118052e-001 0.000000e+000
    outer loop
      vertex   -1.727500e+002 3.590000e+002 3.650000e+001
      vertex   -1.765000e+002 3.590000e+002 3.350000e+001
      vertex   -1.765000e+002 3.590000e+002 2.650000e+001
    endloop
  endfacet
  facet normal 0.000000e+000 -1.000000e+000 0.000000e+000
    outer loop
      vertex   -1.657500e+002 3.590000e+002 3.650000e+001
      vertex   -1.657500e+002 3.590000e+002 4.150000e+001
      vertex   -1.727500e+002 3.590000e+002 3.650000e+001
    endloop
  endfacet
  facet normal 0.000000e+000 -7.016185e-001 0.000000e+000
    outer loop
      vertex   -1.727500e+002 3.590000e+002 3.650000e+001
      vertex   -1.657500e+002 3.590000e+002 4.150000e+001
      vertex   -2.042500e+002 3.590000e+002 4.150000e+001
    endloop
  endfacet
  facet normal -0.000000e+000 -1.567675e-001 0.000000e+000
    outer loop
      vertex   -2.042500e+002 3.590000e+002 4.150000e+001
      vertex   -2.427500e+002 3.590000e+002 4.150000e+001
      vertex   -2.357500e+002 3.590000e+002 3.650000e+001
    endloop
  endfacet
  facet normal 0.000000e+000 -5.812382e-001 0.000000e+000
    outer loop
      vertex   -2.357500e+002 3.590000e+002 3.650000e+001
      vertex   -2.427500e+002 3.590000e+002 4.150000e+001
      vertex   -2.427500e+002 3.590000e+002 3.650000e+001
    endloop
  endfacet
  facet normal 0.000000e+000 8.807378e-001 0.000000e+000
    outer loop
      vertex   -2.042500e+002 3.605000e+002 4.440892e-015
      vertex   -2.442500e+002 3.605000e+002 2.220446e-014
      vertex   -2.185000e+002 3.605000e+002 2.650000e+001
    endloop
  endfacet
  facet normal 0.000000e+000 9.704821e-001 0.000000e+000
    outer loop
      vertex   -2.185000e+002 3.605000e+002 2.650000e+001
      vertex   -2.442500e+002 3.605000e+002 2.220446e-014
      vertex   -2.442500e+002 3.605000e+002 4.150000e+001
    endloop
  endfacet
  facet normal 0.000000e+000 8.640830e-001 -0.000000e+000
    outer loop
      vertex   -2.185000e+002 3.605000e+002 2.650000e+001
      vertex   -2.442500e+002 3.605000e+002 4.150000e+001
      vertex   -2.185000e+002 3.605000e+002 3.350000e+001
    endloop
  endfacet
  facet normal 0.000000e+000 7.262024e-001 -0.000000e+000
    outer loop
      vertex   -2.185000e+002 3.605000e+002 3.350000e+001
      vertex   -2.442500e+002 3.605000e+002 4.150000e+001
      vertex   -2.042500e+002 3.605000e+002 4.150000e+001
    endloop
  endfacet
  facet normal 0.000000e+000 4.895348e-001 0.000000e+000
    outer loop
      vertex   -2.185000e+002 3.605000e+002 3.350000e+001
      vertex   -2.042500e+002 3.605000e+002 4.150000e+001
      vertex   -1.765000e+002 3.605000e+002 3.350000e+001
    endloop
  endfacet
  facet normal 0.000000e+000 7.573217e-001 -0.000000e+000
    outer loop
      vertex   -1.765000e+002 3.605000e+002 3.350000e+001
      vertex   -2.042500e+002 3.605000e+002 4.150000e+001
      vertex   -1.642500e+002 3.605000e+002 4.150000e+001
    endloop
  endfacet
  facet normal -0.000000e+000 8.372705e-001 0.000000e+000
    outer loop
      vertex   -1.765000e+002 3.605000e+002 3.350000e+001
      vertex   -1.642500e+002 3.605000e+002 4.150000e+001
      vertex   -1.765000e+002 3.605000e+002 2.650000e+001
    endloop
  endfacet
  facet normal -0.000000e+000 8.991516e-001 0.000000e+000
    outer loop
      vertex   -1.765000e+002 3.605000e+002 2.650000e+001
      vertex   -1.642500e+002 3.605000e+002 4.150000e+001
      vertex   -1.642500e+002 3.605000e+002 4.440892e-015
    endloop
  endfacet
  facet normal 0.000000e+000 9.462512e-001 0.000000e+000
    outer loop
      vertex   -1.765000e+002 3.605000e+002 2.650000e+001
      vertex   -1.642500e+002 3.605000e+002 4.440892e-015
      vertex   -2.042500e+002 3.605000e+002 4.440892e-015
    endloop
  endfacet
  facet normal 0.000000e+000 6.906307e-001 0.000000e+000
    outer loop
      vertex   -1.765000e+002 3.605000e+002 2.650000e+001
      vertex   -2.042500e+002 3.605000e+002 4.440892e-015
      vertex   -2.185000e+002 3.605000e+002 2.650000e+001
    endloop
  endfacet
  facet normal 0.000000e+000 0.000000e+000 -1.000000e+000
    outer loop
      vertex   -1.765000e+002 3.590000e+002 3.350000e+001
      vertex   -2.185000e+002 3.590000e+002 3.350000e+001
      vertex   -1.765000e+002 3.605000e+002 3.350000e+001
    endloop
  endfacet
  facet normal -0.000000e+000 0.000000e+000 -3.569153e-002
    outer loop
      vertex   -1.765000e+002 3.605000e+002 3.350000e+001
      vertex   -2.185000e+002 3.590000e+002 3.350000e+001
      vertex   -2.185000e+002 3.605000e+002 3.350000e+001
    endloop
  endfacet
  facet normal -1.000000e+000 0.000000e+000 0.000000e+000
    outer loop
      vertex   -1.765000e+002 3.590000e+002 2.650000e+001
      vertex   -1.765000e+002 3.590000e+002 3.350000e+001
      vertex   -1.765000e+002 3.605000e+002 2.650000e+001
    endloop
  endfacet
  facet normal -2.095291e-001 0.000000e+000 0.000000e+000
    outer loop
      vertex   -1.765000e+002 3.605000e+002 2.650000e+001
      vertex   -1.765000e+002 3.590000e+002 3.350000e+001
      vertex   -1.765000e+002 3.605000e+002 3.350000e+001
    endloop
  endfacet
  facet normal 0.000000e+000 0.000000e+000 1.000000e+000
    outer loop
      vertex   -2.185000e+002 3.590000e+002 2.650000e+001
      vertex   -1.765000e+002 3.590000e+002 2.650000e+001
      vertex   -2.185000e+002 3.605000e+002 2.650000e+001
    endloop
  endfacet
  facet normal -0.000000e+000 0.000000e+000 3.569153e-002
    outer loop
      vertex   -2.185000e+002 3.605000e+002 2.650000e+001
      vertex   -1.765000e+002 3.590000e+002 2.650000e+001
      vertex   -1.765000e+002 3.605000e+002 2.650000e+001
    endloop
  endfacet
  facet normal 1.000000e+000 -0.000000e+000 0.000000e+000
    outer loop
      vertex   -2.185000e+002 3.590000e+002 3.350000e+001
      vertex   -2.185000e+002 3.590000e+002 2.650000e+001
      vertex   -2.185000e+002 3.605000e+002 3.350000e+001
    endloop
  endfacet
  facet normal 2.095291e-001 0.000000e+000 0.000000e+000
    outer loop
      vertex   -2.185000e+002 3.605000e+002 3.350000e+001
      vertex   -2.185000e+002 3.590000e+002 2.650000e+001
      vertex   -2.185000e+002 3.605000e+002 2.650000e+001
    endloop
  endfacet
  facet normal 0.000000e+000 0.000000e+000 1.000000e+000
    outer loop
      vertex   -2.427500e+002 2.920000e+002 2.400000e+001
      vertex   -2.442500e+002 2.920000e+002 2.400000e+001
      vertex   -2.427500e+002 2.820000e+002 2.400000e+001
    endloop
  endfacet
  facet normal 0.000000e+000 0.000000e+000 9.889364e-001
    outer loop
      vertex   -2.427500e+002 2.820000e+002 2.400000e+001
      vertex   -2.442500e+002 2.920000e+002 2.400000e+001
      vertex   -2.442500e+002 2.820000e+002 2.400000e+001
    endloop
  endfacet
  facet normal 0.000000e+000 1.000000e+000 0.000000e+000
    outer loop
      vertex   -2.427500e+002 2.820000e+002 3.400000e+001
      vertex   -2.427500e+002 2.820000e+002 2.400000e+001
      vertex   -2.442500e+002 2.820000e+002 3.400000e+001
    endloop
  endfacet
  facet normal 0.000000e+000 1.483404e-001 0.000000e+000
    outer loop
      vertex   -2.442500e+002 2.820000e+002 3.400000e+001
      vertex   -2.427500e+002 2.820000e+002 2.400000e+001
      vertex   -2.442500e+002 2.820000e+002 2.400000e+001
    endloop
  endfacet
  facet normal 0.000000e+000 0.000000e+000 -1.000000e+000
    outer loop
      vertex   -2.427500e+002 2.820000e+002 3.400000e+001
      vertex   -2.442500e+002 2.820000e+002 3.400000e+001
      vertex   -2.427500e+002 2.920000e+002 3.400000e+001
    endloop
  endfacet
  facet normal -0.000000e+000 0.000000e+000 -9.889364e-001
    outer loop
      vertex   -2.427500e+002 2.920000e+002 3.400000e+001
      vertex   -2.442500e+002 2.820000e+002 3.400000e+001
      vertex   -2.442500e+002 2.920000e+002 3.400000e+001
    endloop
  endfacet
  facet normal 0.000000e+000 -1.000000e+000 0.000000e+000
    outer loop
      vertex   -2.427500e+002 2.920000e+002 2.400000e+001
      vertex   -2.427500e+002 2.920000e+002 3.400000e+001
      vertex   -2.442500e+002 2.920000e+002 2.400000e+001
    endloop
  endfacet
  facet normal 0.000000e+000 -1.483404e-001 0.000000e+000
    outer loop
      vertex   -2.442500e+002 2.920000e+002 2.400000e+001
      vertex   -2.427500e+002 2.920000e+002 3.400000e+001
      vertex   -2.442500e+002 2.920000e+002 3.400000e+001
    endloop
  endfacet
  facet normal 0.000000e+000 0.000000e+000 1.000000e+000
    outer loop
      vertex   -2.427500e+002 2.630000e+002 6.000000e+000
      vertex   -2.442500e+002 2.630000e+002 6.000000e+000
      vertex   -2.427500e+002 2.505000e+002 6.000000e+000
    endloop
  endfacet
  facet normal 0.000000e+000 0.000000e+000 9.928768e-001
    outer loop
      vertex   -2.427500e+002 2.505000e+002 6.000000e+000
      vertex   -2.442500e+002 2.630000e+002 6.000000e+000
      vertex   -2.442500e+002 2.505000e+002 6.000000e+000
    endloop
  endfacet
  facet normal 0.000000e+000 1.000000e+000 0.000000e+000
    outer loop
      vertex   -2.427500e+002 2.505000e+002 1.850000e+001
      vertex   -2.427500e+002 2.505000e+002 6.000000e+000
      vertex   -2.442500e+002 2.505000e+002 1.850000e+001
    endloop
  endfacet
  facet normal 0.000000e+000 1.191452e-001 0.000000e+000
    outer loop
      vertex   -2.442500e+002 2.505000e+002 1.850000e+001
      vertex   -2.427500e+002 2.505000e+002 6.000000e+000
      vertex   -2.442500e+002 2.505000e+002 6.000000e+000
    endloop
  endfacet
  facet normal 0.000000e+000 0.000000e+000 -1.000000e+000
    outer loop
      vertex   -2.427500e+002 2.505000e+002 1.850000e+001
      vertex   -2.442500e+002 2.505000e+002 1.850000e+001
      vertex   -2.427500e+002 2.630000e+002 1.850000e+001
    endloop
  endfacet
  facet normal -0.000000e+000 0.000000e+000 -9.928768e-001
    outer loop
      vertex   -2.427500e+002 2.630000e+002 1.850000e+001
      vertex   -2.442500e+002 2.505000e+002 1.850000e+001
      vertex   -2.442500e+002 2.630000e+002 1.850000e+001
    endloop
  endfacet
  facet normal 0.000000e+000 -1.000000e+000 0.000000e+000
    outer loop
      vertex   -2.427500e+002 2.630000e+002 6.000000e+000
      vertex   -2.427500e+002 2.630000e+002 1.850000e+001
      vertex   -2.442500e+002 2.630000e+002 6.000000e+000
    endloop
  endfacet
  facet normal 0.000000e+000 -1.191452e-001 0.000000e+000
    outer loop
      vertex   -2.442500e+002 2.630000e+002 6.000000e+000
      vertex   -2.427500e+002 2.630000e+002 1.850000e+001
      vertex   -2.442500e+002 2.630000e+002 1.850000e+001
    endloop
  endfacet
  facet normal 0.000000e+000 0.000000e+000 1.000000e+000
    outer loop
      vertex   -2.427500e+002 2.640000e+002 2.300000e+001
      vertex   -2.442500e+002 2.640000e+002 2.300000e+001
      vertex   -2.427500e+002 2.515000e+002 2.300000e+001
    endloop
  endfacet
  facet normal 0.000000e+000 0.000000e+000 9.928768e-001
    outer loop
      vertex   -2.427500e+002 2.515000e+002 2.300000e+001
      vertex   -2.442500e+002 2.640000e+002 2.300000e+001
      vertex   -2.442500e+002 2.515000e+002 2.300000e+001
    endloop
  endfacet
  facet normal 0.000000e+000 1.000000e+000 0.000000e+000
    outer loop
      vertex   -2.427500e+002 2.515000e+002 3.500000e+001
      vertex   -2.427500e+002 2.515000e+002 2.300000e+001
      vertex   -2.442500e+002 2.515000e+002 3.500000e+001
    endloop
  endfacet
  facet normal 0.000000e+000 1.240347e-001 0.000000e+000
    outer loop
      vertex   -2.442500e+002 2.515000e+002 3.500000e+001
      vertex   -2.427500e+002 2.515000e+002 2.300000e+001
      vertex   -2.442500e+002 2.515000e+002 2.300000e+001
    endloop
  endfacet
  facet normal 0.000000e+000 0.000000e+000 -1.000000e+000
    outer loop
      vertex   -2.427500e+002 2.515000e+002 3.500000e+001
      vertex   -2.442500e+002 2.515000e+002 3.500000e+001
      vertex   -2.427500e+002 2.640000e+002 3.500000e+001
    endloop
  endfacet
  facet normal -0.000000e+000 0.000000e+000 -9.928768e-001
    outer loop
      vertex   -2.427500e+002 2.640000e+002 3.500000e+001
      vertex   -2.442500e+002 2.515000e+002 3.500000e+001
      vertex   -2.442500e+002 2.640000e+002 3.500000e+001
    endloop
  endfacet
  facet normal 0.000000e+000 -1.000000e+000 0.000000e+000
    outer loop
      vertex   -2.427500e+002 2.640000e+002 2.300000e+001
      vertex   -2.427500e+002 2.640000e+002 3.500000e+001
      vertex   -2.442500e+002 2.640000e+002 2.300000e+001
    endloop
  endfacet
  facet normal 0.000000e+000 -1.240347e-001 0.000000e+000
    outer loop
      vertex   -2.442500e+002 2.640000e+002 2.300000e+001
      vertex   -2.427500e+002 2.640000e+002 3.500000e+001
      vertex   -2.442500e+002 2.640000e+002 3.500000e+001
    endloop
  endfacet
  facet normal 0.000000e+000 -1.000000e+000 0.000000e+000
    outer loop
      vertex   -2.133398e+002 2.881053e+002 1.499999e+000
      vertex   -2.133398e+002 2.881053e+002 4.440892e-015
      vertex   -2.103398e+002 2.881053e+002 1.499999e+000
    endloop
  endfacet
  facet normal 0.000000e+000 -8.944273e-001 -0.000000e+000
    outer loop
      vertex   -2.103398e+002 2.881053e+002 1.499999e+000
      vertex   -2.133398e+002 2.881053e+002 4.440892e-015
      vertex   -2.103398e+002 2.881053e+002 4.440892e-015
    endloop
  endfacet
  facet normal -1.000000e+000 0.000000e+000 0.000000e+000
    outer loop
      vertex   -2.103398e+002 2.481053e+002 1.499999e+000
      vertex   -2.103398e+002 2.881053e+002 1.499999e+000
      vertex   -2.103398e+002 2.481053e+002 4.440892e-015
    endloop
  endfacet
  facet normal -3.747365e-002 0.000000e+000 0.000000e+000
    outer loop
      vertex   -2.103398e+002 2.481053e+002 4.440892e-015
      vertex   -2.103398e+002 2.881053e+002 1.499999e+000
      vertex   -2.103398e+002 2.881053e+002 4.440892e-015
    endloop
  endfacet
  facet normal 0.000000e+000 1.000000e+000 0.000000e+000
    outer loop
      vertex   -2.103398e+002 2.481053e+002 1.499999e+000
      vertex   -2.103398e+002 2.481053e+002 4.440892e-015
      vertex   -2.133398e+002 2.481053e+002 1.499999e+000
    endloop
  endfacet
  facet normal 0.000000e+000 8.944273e-001 0.000000e+000
    outer loop
      vertex   -2.133398e+002 2.481053e+002 1.499999e+000
      vertex   -2.103398e+002 2.481053e+002 4.440892e-015
      vertex   -2.133398e+002 2.481053e+002 4.440892e-015
    endloop
  endfacet
  facet normal 1.000000e+000 0.000000e+000 0.000000e+000
    outer loop
      vertex   -2.133398e+002 2.881053e+002 1.499999e+000
      vertex   -2.133398e+002 2.481053e+002 1.499999e+000
      vertex   -2.133398e+002 2.881053e+002 4.440892e-015
    endloop
  endfacet
  facet normal 3.747365e-002 0.000000e+000 0.000000e+000
    outer loop
      vertex   -2.133398e+002 2.881053e+002 4.440892e-015
      vertex   -2.133398e+002 2.481053e+002 1.499999e+000
      vertex   -2.133398e+002 2.481053e+002 4.440892e-015
    endloop
  endfacet
  facet normal 0.000000e+000 -1.000000e+000 0.000000e+000
    outer loop
      vertex   -2.063398e+002 2.881053e+002 1.499999e+000
      vertex   -2.063398e+002 2.881053e+002 4.440892e-015
      vertex   -2.033398e+002 2.881053e+002 1.499999e+000
    endloop
  endfacet
  facet normal 0.000000e+000 -8.944273e-001 -0.000000e+000
    outer loop
      vertex   -2.033398e+002 2.881053e+002 1.499999e+000
      vertex   -2.063398e+002 2.881053e+002 4.440892e-015
      vertex   -2.033398e+002 2.881053e+002 4.440892e-015
    endloop
  endfacet
  facet normal -1.000000e+000 0.000000e+000 0.000000e+000
    outer loop
      vertex   -2.033398e+002 2.481053e+002 1.499999e+000
      vertex   -2.033398e+002 2.881053e+002 1.499999e+000
      vertex   -2.033398e+002 2.481053e+002 4.440892e-015
    endloop
  endfacet
  facet normal -3.747365e-002 0.000000e+000 0.000000e+000
    outer loop
      vertex   -2.033398e+002 2.481053e+002 4.440892e-015
      vertex   -2.033398e+002 2.881053e+002 1.499999e+000
      vertex   -2.033398e+002 2.881053e+002 4.440892e-015
    endloop
  endfacet
  facet normal 0.000000e+000 1.000000e+000 0.000000e+000
    outer loop
      vertex   -2.033398e+002 2.481053e+002 1.499999e+000
      vertex   -2.033398e+002 2.481053e+002 4.440892e-015
      vertex   -2.063398e+002 2.481053e+002 1.499999e+000
    endloop
  endfacet
  facet normal 0.000000e+000 8.944273e-001 0.000000e+000
    outer loop
      vertex   -2.063398e+002 2.481053e+002 1.499999e+000
      vertex   -2.033398e+002 2.481053e+002 4.440892e-015
      vertex   -2.063398e+002 2.481053e+002 4.440892e-015
    endloop
  endfacet
  facet normal 1.000000e+000 0.000000e+000 0.000000e+000
    outer loop
      vertex   -2.063398e+002 2.881053e+002 1.499999e+000
      vertex   -2.063398e+002 2.481053e+002 1.499999e+000
      vertex   -2.063398e+002 2.881053e+002 4.440892e-015
    endloop
  endfacet
  facet normal 3.747365e-002 0.000000e+000 0.000000e+000
    outer loop
      vertex   -2.063398e+002 2.881053e+002 4.440892e-015
      vertex   -2.063398e+002 2.481053e+002 1.499999e+000
      vertex   -2.063398e+002 2.481053e+002 4.440892e-015
    endloop
  endfacet
  facet normal 0.000000e+000 -1.000000e+000 0.000000e+000
    outer loop
      vertex   -1.853398e+002 2.881053e+002 1.499999e+000
      vertex   -1.853398e+002 2.881053e+002 4.440892e-015
      vertex   -1.823398e+002 2.881053e+002 1.499999e+000
    endloop
  endfacet
  facet normal 0.000000e+000 -8.944273e-001 -0.000000e+000
    outer loop
      vertex   -1.823398e+002 2.881053e+002 1.499999e+000
      vertex   -1.853398e+002 2.881053e+002 4.440892e-015
      vertex   -1.823398e+002 2.881053e+002 4.440892e-015
    endloop
  endfacet
  facet normal -1.000000e+000 0.000000e+000 0.000000e+000
    outer loop
      vertex   -1.823398e+002 2.481053e+002 1.499999e+000
      vertex   -1.823398e+002 2.881053e+002 1.499999e+000
      vertex   -1.823398e+002 2.481053e+002 4.440892e-015
    endloop
  endfacet
  facet normal -3.747365e-002 0.000000e+000 0.000000e+000
    outer loop
      vertex   -1.823398e+002 2.481053e+002 4.440892e-015
      vertex   -1.823398e+002 2.881053e+002 1.499999e+000
      vertex   -1.823398e+002 2.881053e+002 4.440892e-015
    endloop
  endfacet
  facet normal 0.000000e+000 1.000000e+000 0.000000e+000
    outer loop
      vertex   -1.823398e+002 2.481053e+002 1.499999e+000
      vertex   -1.823398e+002 2.481053e+002 4.440892e-015
      vertex   -1.853398e+002 2.481053e+002 1.499999e+000
    endloop
  endfacet
  facet normal 0.000000e+000 8.944273e-001 0.000000e+000
    outer loop
      vertex   -1.853398e+002 2.481053e+002 1.499999e+000
      vertex   -1.823398e+002 2.481053e+002 4.440892e-015
      vertex   -1.853398e+002 2.481053e+002 4.440892e-015
    endloop
  endfacet
  facet normal 1.000000e+000 0.000000e+000 0.000000e+000
    outer loop
      vertex   -1.853398e+002 2.881053e+002 1.499999e+000
      vertex   -1.853398e+002 2.481053e+002 1.499999e+000
      vertex   -1.853398e+002 2.881053e+002 4.440892e-015
    endloop
  endfacet
  facet normal 3.747365e-002 0.000000e+000 0.000000e+000
    outer loop
      vertex   -1.853398e+002 2.881053e+002 4.440892e-015
      vertex   -1.853398e+002 2.481053e+002 1.499999e+000
      vertex   -1.853398e+002 2.481053e+002 4.440892e-015
    endloop
  endfacet
  facet normal 0.000000e+000 -1.000000e+000 0.000000e+000
    outer loop
      vertex   -1.993398e+002 2.881053e+002 1.499999e+000
      vertex   -1.993398e+002 2.881053e+002 4.440892e-015
      vertex   -1.963398e+002 2.881053e+002 1.499999e+000
    endloop
  endfacet
  facet normal 0.000000e+000 -8.944273e-001 -0.000000e+000
    outer loop
      vertex   -1.963398e+002 2.881053e+002 1.499999e+000
      vertex   -1.993398e+002 2.881053e+002 4.440892e-015
      vertex   -1.963398e+002 2.881053e+002 4.440892e-015
    endloop
  endfacet
  facet normal -1.000000e+000 0.000000e+000 0.000000e+000
    outer loop
      vertex   -1.963398e+002 2.481053e+002 1.499999e+000
      vertex   -1.963398e+002 2.881053e+002 1.499999e+000
      vertex   -1.963398e+002 2.481053e+002 4.440892e-015
    endloop
  endfacet
  facet normal -3.747365e-002 0.000000e+000 0.000000e+000
    outer loop
      vertex   -1.963398e+002 2.481053e+002 4.440892e-015
      vertex   -1.963398e+002 2.881053e+002 1.499999e+000
      vertex   -1.963398e+002 2.881053e+002 4.440892e-015
    endloop
  endfacet
  facet normal 0.000000e+000 1.000000e+000 0.000000e+000
    outer loop
      vertex   -1.963398e+002 2.481053e+002 1.499999e+000
      vertex   -1.963398e+002 2.481053e+002 4.440892e-015
      vertex   -1.993398e+002 2.481053e+002 1.499999e+000
    endloop
  endfacet
  facet normal 0.000000e+000 8.944273e-001 0.000000e+000
    outer loop
      vertex   -1.993398e+002 2.481053e+002 1.499999e+000
      vertex   -1.963398e+002 2.481053e+002 4.440892e-015
      vertex   -1.993398e+002 2.481053e+002 4.440892e-015
    endloop
  endfacet
  facet normal 1.000000e+000 0.000000e+000 0.000000e+000
    outer loop
      vertex   -1.993398e+002 2.881053e+002 1.499999e+000
      vertex   -1.993398e+002 2.481053e+002 1.499999e+000
      vertex   -1.993398e+002 2.881053e+002 4.440892e-015
    endloop
  endfacet
  facet normal 3.747365e-002 0.000000e+000 0.000000e+000
    outer loop
      vertex   -1.993398e+002 2.881053e+002 4.440892e-015
      vertex   -1.993398e+002 2.481053e+002 1.499999e+000
      vertex   -1.993398e+002 2.481053e+002 4.440892e-015
    endloop
  endfacet
  facet normal 0.000000e+000 -1.000000e+000 0.000000e+000
    outer loop
      vertex   -1.923398e+002 2.881053e+002 1.499999e+000
      vertex   -1.923398e+002 2.881053e+002 4.440892e-015
      vertex   -1.893398e+002 2.881053e+002 1.499999e+000
    endloop
  endfacet
  facet normal 0.000000e+000 -8.944273e-001 -0.000000e+000
    outer loop
      vertex   -1.893398e+002 2.881053e+002 1.499999e+000
      vertex   -1.923398e+002 2.881053e+002 4.440892e-015
      vertex   -1.893398e+002 2.881053e+002 4.440892e-015
    endloop
  endfacet
  facet normal -1.000000e+000 0.000000e+000 0.000000e+000
    outer loop
      vertex   -1.893398e+002 2.481053e+002 1.499999e+000
      vertex   -1.893398e+002 2.881053e+002 1.499999e+000
      vertex   -1.893398e+002 2.481053e+002 4.440892e-015
    endloop
  endfacet
  facet normal -3.747365e-002 0.000000e+000 0.000000e+000
    outer loop
      vertex   -1.893398e+002 2.481053e+002 4.440892e-015
      vertex   -1.893398e+002 2.881053e+002 1.499999e+000
      vertex   -1.893398e+002 2.881053e+002 4.440892e-015
    endloop
  endfacet
  facet normal 0.000000e+000 1.000000e+000 0.000000e+000
    outer loop
      vertex   -1.893398e+002 2.481053e+002 1.499999e+000
      vertex   -1.893398e+002 2.481053e+002 4.440892e-015
      vertex   -1.923398e+002 2.481053e+002 1.499999e+000
    endloop
  endfacet
  facet normal 0.000000e+000 8.944273e-001 0.000000e+000
    outer loop
      vertex   -1.923398e+002 2.481053e+002 1.499999e+000
      vertex   -1.893398e+002 2.481053e+002 4.440892e-015
      vertex   -1.923398e+002 2.481053e+002 4.440892e-015
    endloop
  endfacet
  facet normal 1.000000e+000 0.000000e+000 0.000000e+000
    outer loop
      vertex   -1.923398e+002 2.881053e+002 1.499999e+000
      vertex   -1.923398e+002 2.481053e+002 1.499999e+000
      vertex   -1.923398e+002 2.881053e+002 4.440892e-015
    endloop
  endfacet
  facet normal 3.747365e-002 0.000000e+000 0.000000e+000
    outer loop
      vertex   -1.923398e+002 2.881053e+002 4.440892e-015
      vertex   -1.923398e+002 2.481053e+002 1.499999e+000
      vertex   -1.923398e+002 2.481053e+002 4.440892e-015
    endloop
  endfacet
  facet normal 3.571375e-001 0.000000e+000 0.000000e+000
    outer loop
      vertex   -2.427500e+002 2.440000e+002 1.500000e+000
      vertex   -2.427500e+002 2.505000e+002 1.850000e+001
      vertex   -2.427500e+002 2.440000e+002 3.650000e+001
    endloop
  endfacet
  facet normal 1.598707e-001 0.000000e+000 0.000000e+000
    outer loop
      vertex   -2.427500e+002 2.440000e+002 3.650000e+001
      vertex   -2.427500e+002 2.505000e+002 1.850000e+001
      vertex   -2.427500e+002 2.515000e+002 2.300000e+001
    endloop
  endfacet
  facet normal 7.619393e-001 0.000000e+000 0.000000e+000
    outer loop
      vertex   -2.427500e+002 2.440000e+002 3.650000e+001
      vertex   -2.427500e+002 2.515000e+002 2.300000e+001
      vertex   -2.427500e+002 2.515000e+002 3.500000e+001
    endloop
  endfacet
  facet normal 1.275218e-001 0.000000e+000 0.000000e+000
    outer loop
      vertex   -2.427500e+002 2.980000e+002 1.499999e+000
      vertex   -2.427500e+002 2.630000e+002 6.000000e+000
      vertex   -2.427500e+002 2.440000e+002 1.500000e+000
    endloop
  endfacet
  facet normal 3.643993e-001 0.000000e+000 0.000000e+000
    outer loop
      vertex   -2.427500e+002 2.440000e+002 1.500000e+000
      vertex   -2.427500e+002 2.630000e+002 6.000000e+000
      vertex   -2.427500e+002 2.505000e+002 6.000000e+000
    endloop
  endfacet
  facet normal 5.646839e-001 0.000000e+000 0.000000e+000
    outer loop
      vertex   -2.427500e+002 2.440000e+002 1.500000e+000
      vertex   -2.427500e+002 2.505000e+002 6.000000e+000
      vertex   -2.427500e+002 2.505000e+002 1.850000e+001
    endloop
  endfacet
  facet normal 7.650766e-001 0.000000e+000 0.000000e+000
    outer loop
      vertex   -2.427500e+002 3.520000e+002 1.500000e+000
      vertex   -2.427500e+002 3.183333e+002 4.150000e+001
      vertex   -2.427500e+002 2.980000e+002 1.499999e+000
    endloop
  endfacet
  facet normal 6.675360e-001 0.000000e+000 -0.000000e+000
    outer loop
      vertex   -2.427500e+002 2.980000e+002 1.499999e+000
      vertex   -2.427500e+002 3.183333e+002 4.150000e+001
      vertex   -2.427500e+002 2.920000e+002 2.400000e+001
    endloop
  endfacet
  facet normal 3.499726e-001 0.000000e+000 0.000000e+000
    outer loop
      vertex   -2.427500e+002 2.980000e+002 1.499999e+000
      vertex   -2.427500e+002 2.920000e+002 2.400000e+001
      vertex   -2.427500e+002 2.820000e+002 2.400000e+001
    endloop
  endfacet
  facet normal 6.439393e-001 0.000000e+000 -0.000000e+000
    outer loop
      vertex   -2.427500e+002 3.520000e+002 1.500000e+000
      vertex   -2.427500e+002 3.520000e+002 3.650000e+001
      vertex   -2.427500e+002 3.183333e+002 4.150000e+001
    endloop
  endfacet
  facet normal 1.469036e-001 -0.000000e+000 0.000000e+000
    outer loop
      vertex   -2.427500e+002 3.183333e+002 4.150000e+001
      vertex   -2.427500e+002 3.520000e+002 3.650000e+001
      vertex   -2.427500e+002 3.590000e+002 4.150000e+001
    endloop
  endfacet
  facet normal 8.137335e-001 0.000000e+000 0.000000e+000
    outer loop
      vertex   -2.427500e+002 3.590000e+002 4.150000e+001
      vertex   -2.427500e+002 3.520000e+002 3.650000e+001
      vertex   -2.427500e+002 3.590000e+002 3.650000e+001
    endloop
  endfacet
  facet normal 8.328605e-001 0.000000e+000 0.000000e+000
    outer loop
      vertex   -2.427500e+002 2.920000e+002 2.400000e+001
      vertex   -2.427500e+002 3.183333e+002 4.150000e+001
      vertex   -2.427500e+002 2.920000e+002 3.400000e+001
    endloop
  endfacet
  facet normal 6.885893e-001 0.000000e+000 -0.000000e+000
    outer loop
      vertex   -2.427500e+002 2.920000e+002 3.400000e+001
      vertex   -2.427500e+002 3.183333e+002 4.150000e+001
      vertex   -2.427500e+002 2.776667e+002 4.150000e+001
    endloop
  endfacet
  facet normal 4.636217e-001 0.000000e+000 0.000000e+000
    outer loop
      vertex   -2.427500e+002 2.920000e+002 3.400000e+001
      vertex   -2.427500e+002 2.776667e+002 4.150000e+001
      vertex   -2.427500e+002 2.820000e+002 3.400000e+001
    endloop
  endfacet
  facet normal 8.367810e-001 0.000000e+000 0.000000e+000
    outer loop
      vertex   -2.427500e+002 2.820000e+002 3.400000e+001
      vertex   -2.427500e+002 2.776667e+002 4.150000e+001
      vertex   -2.427500e+002 2.640000e+002 3.500000e+001
    endloop
  endfacet
  facet normal 5.679787e-001 0.000000e+000 0.000000e+000
    outer loop
      vertex   -2.427500e+002 2.820000e+002 3.400000e+001
      vertex   -2.427500e+002 2.640000e+002 3.500000e+001
      vertex   -2.427500e+002 2.640000e+002 2.300000e+001
    endloop
  endfacet
  facet normal 4.295063e-001 0.000000e+000 -0.000000e+000
    outer loop
      vertex   -2.427500e+002 2.640000e+002 3.500000e+001
      vertex   -2.427500e+002 2.776667e+002 4.150000e+001
      vertex   -2.427500e+002 2.515000e+002 3.500000e+001
    endloop
  endfacet
  facet normal 6.169794e-001 0.000000e+000 -0.000000e+000
    outer loop
      vertex   -2.427500e+002 2.515000e+002 3.500000e+001
      vertex   -2.427500e+002 2.776667e+002 4.150000e+001
      vertex   -2.427500e+002 2.370000e+002 4.150000e+001
    endloop
  endfacet
  facet normal 2.221545e-001 0.000000e+000 0.000000e+000
    outer loop
      vertex   -2.427500e+002 2.515000e+002 3.500000e+001
      vertex   -2.427500e+002 2.370000e+002 4.150000e+001
      vertex   -2.427500e+002 2.440000e+002 3.650000e+001
    endloop
  endfacet
  facet normal 5.812382e-001 0.000000e+000 0.000000e+000
    outer loop
      vertex   -2.427500e+002 2.440000e+002 3.650000e+001
      vertex   -2.427500e+002 2.370000e+002 4.150000e+001
      vertex   -2.427500e+002 2.370000e+002 3.650000e+001
    endloop
  endfacet
  facet normal 8.532819e-001 0.000000e+000 0.000000e+000
    outer loop
      vertex   -2.427500e+002 2.820000e+002 3.400000e+001
      vertex   -2.427500e+002 2.640000e+002 2.300000e+001
      vertex   -2.427500e+002 2.820000e+002 2.400000e+001
    endloop
  endfacet
  facet normal 2.243474e-001 0.000000e+000 0.000000e+000
    outer loop
      vertex   -2.427500e+002 2.820000e+002 2.400000e+001
      vertex   -2.427500e+002 2.640000e+002 2.300000e+001
      vertex   -2.427500e+002 2.630000e+002 1.850000e+001
    endloop
  endfacet
  facet normal 4.587659e-001 0.000000e+000 0.000000e+000
    outer loop
      vertex   -2.427500e+002 2.820000e+002 2.400000e+001
      vertex   -2.427500e+002 2.630000e+002 1.850000e+001
      vertex   -2.427500e+002 2.630000e+002 6.000000e+000
    endloop
  endfacet
  facet normal 9.761871e-001 0.000000e+000 0.000000e+000
    outer loop
      vertex   -2.427500e+002 2.505000e+002 1.850000e+001
      vertex   -2.427500e+002 2.630000e+002 1.850000e+001
      vertex   -2.427500e+002 2.515000e+002 2.300000e+001
    endloop
  endfacet
  facet normal 3.643993e-001 -0.000000e+000 0.000000e+000
    outer loop
      vertex   -2.427500e+002 2.515000e+002 2.300000e+001
      vertex   -2.427500e+002 2.630000e+002 1.850000e+001
      vertex   -2.427500e+002 2.640000e+002 2.300000e+001
    endloop
  endfacet
  facet normal 9.901834e-001 0.000000e+000 0.000000e+000
    outer loop
      vertex   -2.427500e+002 2.820000e+002 2.400000e+001
      vertex   -2.427500e+002 2.630000e+002 6.000000e+000
      vertex   -2.427500e+002 2.980000e+002 1.499999e+000
    endloop
  endfacet
  facet normal -0.000000e+000 -0.000000e+000 -9.004250e-001
    outer loop
      vertex   -2.103398e+002 2.481053e+002 4.440892e-015
      vertex   -2.042500e+002 2.355000e+002 4.440892e-015
      vertex   -2.133398e+002 2.481053e+002 4.440892e-015
    endloop
  endfacet
  facet normal -4.316192e-016 -3.112461e-016 -9.719200e-001
    outer loop
      vertex   -2.133398e+002 2.481053e+002 4.440892e-015
      vertex   -2.042500e+002 2.355000e+002 4.440892e-015
      vertex   -2.442500e+002 2.355000e+002 2.220446e-014
    endloop
  endfacet
  facet normal -5.226073e-016 0.000000e+000 -9.093821e-001
    outer loop
      vertex   -2.133398e+002 2.481053e+002 4.440892e-015
      vertex   -2.442500e+002 2.355000e+002 2.220446e-014
      vertex   -2.442500e+002 2.771667e+002 2.220446e-014
    endloop
  endfacet
  facet normal 0.000000e+000 0.000000e+000 -2.818813e-001
    outer loop
      vertex   -2.042500e+002 2.355000e+002 4.440892e-015
      vertex   -2.103398e+002 2.481053e+002 4.440892e-015
      vertex   -2.063398e+002 2.481053e+002 4.440892e-015
    endloop
  endfacet
  facet normal 0.000000e+000 0.000000e+000 -9.950372e-001
    outer loop
      vertex   -2.063398e+002 2.481053e+002 4.440892e-015
      vertex   -2.103398e+002 2.481053e+002 4.440892e-015
      vertex   -2.103398e+002 2.881053e+002 4.440892e-015
    endloop
  endfacet
  facet normal 0.000000e+000 0.000000e+000 -9.950376e-002
    outer loop
      vertex   -2.063398e+002 2.481053e+002 4.440892e-015
      vertex   -2.103398e+002 2.881053e+002 4.440892e-015
      vertex   -2.063398e+002 2.881053e+002 4.440892e-015
    endloop
  endfacet
  facet normal 0.000000e+000 0.000000e+000 -9.976953e-001
    outer loop
      vertex   -2.063398e+002 2.881053e+002 4.440892e-015
      vertex   -2.103398e+002 2.881053e+002 4.440892e-015
      vertex   -2.042500e+002 3.188333e+002 4.440892e-015
    endloop
  endfacet
  facet normal 0.000000e+000 0.000000e+000 -9.976953e-001
    outer loop
      vertex   -2.063398e+002 2.881053e+002 4.440892e-015
      vertex   -2.042500e+002 3.188333e+002 4.440892e-015
      vertex   -2.033398e+002 2.881053e+002 4.440892e-015
    endloop
  endfacet
  facet normal 0.000000e+000 0.000000e+000 -9.995616e-001
    outer loop
      vertex   -2.033398e+002 2.881053e+002 4.440892e-015
      vertex   -2.042500e+002 3.188333e+002 4.440892e-015
      vertex   -1.993398e+002 2.881053e+002 4.440892e-015
    endloop
  endfacet
  facet normal 0.000000e+000 0.000000e+000 -9.950372e-001
    outer loop
      vertex   -2.033398e+002 2.881053e+002 4.440892e-015
      vertex   -1.993398e+002 2.881053e+002 4.440892e-015
      vertex   -1.993398e+002 2.481053e+002 4.440892e-015
    endloop
  endfacet
  facet normal 0.000000e+000 0.000000e+000 -9.809216e-001
    outer loop
      vertex   -2.103398e+002 2.881053e+002 4.440892e-015
      vertex   -2.133398e+002 2.881053e+002 4.440892e-015
      vertex   -2.042500e+002 3.188333e+002 4.440892e-015
    endloop
  endfacet
  facet normal -4.258476e-016 1.259724e-016 -9.589235e-001
    outer loop
      vertex   -2.042500e+002 3.188333e+002 4.440892e-015
      vertex   -2.133398e+002 2.881053e+002 4.440892e-015
      vertex   -2.442500e+002 3.188333e+002 2.220446e-014
    endloop
  endfacet
  facet normal -4.440892e-016 0.000000e+000 -1.000000e+000
    outer loop
      vertex   -2.042500e+002 3.188333e+002 4.440892e-015
      vertex   -2.442500e+002 3.188333e+002 2.220446e-014
      vertex   -2.042500e+002 3.605000e+002 4.440892e-015
    endloop
  endfacet
  facet normal -3.203603e-016 0.000000e+000 -7.213872e-001
    outer loop
      vertex   -2.042500e+002 3.605000e+002 4.440892e-015
      vertex   -2.442500e+002 3.188333e+002 2.220446e-014
      vertex   -2.442500e+002 3.605000e+002 2.220446e-014
    endloop
  endfacet
  facet normal -4.075616e-016 -0.000000e+000 -7.091927e-001
    outer loop
      vertex   -2.442500e+002 3.188333e+002 2.220446e-014
      vertex   -2.133398e+002 2.881053e+002 4.440892e-015
      vertex   -2.442500e+002 2.771667e+002 2.220446e-014
    endloop
  endfacet
  facet normal -5.107767e-016 4.930381e-032 -8.887960e-001
    outer loop
      vertex   -2.442500e+002 2.771667e+002 2.220446e-014
      vertex   -2.133398e+002 2.881053e+002 4.440892e-015
      vertex   -2.133398e+002 2.481053e+002 4.440892e-015
    endloop
  endfacet
  facet normal 0.000000e+000 0.000000e+000 -9.865337e-001
    outer loop
      vertex   -2.063398e+002 2.481053e+002 4.440892e-015
      vertex   -2.033398e+002 2.481053e+002 4.440892e-015
      vertex   -2.042500e+002 2.355000e+002 4.440892e-015
    endloop
  endfacet
  facet normal 0.000000e+000 0.000000e+000 -2.949181e-001
    outer loop
      vertex   -2.042500e+002 2.355000e+002 4.440892e-015
      vertex   -2.033398e+002 2.481053e+002 4.440892e-015
      vertex   -1.993398e+002 2.481053e+002 4.440892e-015
    endloop
  endfacet
  facet normal 0.000000e+000 0.000000e+000 -1.878423e-001
    outer loop
      vertex   -2.042500e+002 2.355000e+002 4.440892e-015
      vertex   -1.993398e+002 2.481053e+002 4.440892e-015
      vertex   -1.963398e+002 2.481053e+002 4.440892e-015
    endloop
  endfacet
  facet normal 0.000000e+000 0.000000e+000 -1.000000e+000
    outer loop
      vertex   -2.033398e+002 2.481053e+002 4.440892e-015
      vertex   -2.033398e+002 2.881053e+002 4.440892e-015
      vertex   -1.993398e+002 2.481053e+002 4.440892e-015
    endloop
  endfacet
  facet normal -0.000000e+000 -0.000000e+000 -5.717080e-001
    outer loop
      vertex   -1.823398e+002 2.481053e+002 4.440892e-015
      vertex   -1.642500e+002 2.355000e+002 4.440892e-015
      vertex   -1.853398e+002 2.481053e+002 4.440892e-015
    endloop
  endfacet
  facet normal 0.000000e+000 -0.000000e+000 -9.029872e-001
    outer loop
      vertex   -1.853398e+002 2.481053e+002 4.440892e-015
      vertex   -1.642500e+002 2.355000e+002 4.440892e-015
      vertex   -2.042500e+002 2.355000e+002 4.440892e-015
    endloop
  endfacet
  facet normal -0.000000e+000 0.000000e+000 -5.546554e-001
    outer loop
      vertex   -1.853398e+002 2.481053e+002 4.440892e-015
      vertex   -2.042500e+002 2.355000e+002 4.440892e-015
      vertex   -1.893398e+002 2.481053e+002 4.440892e-015
    endloop
  endfacet
  facet normal -0.000000e+000 0.000000e+000 -6.456143e-001
    outer loop
      vertex   -1.893398e+002 2.481053e+002 4.440892e-015
      vertex   -2.042500e+002 2.355000e+002 4.440892e-015
      vertex   -1.923398e+002 2.481053e+002 4.440892e-015
    endloop
  endfacet
  facet normal -0.000000e+000 0.000000e+000 -7.268649e-001
    outer loop
      vertex   -1.923398e+002 2.481053e+002 4.440892e-015
      vertex   -2.042500e+002 2.355000e+002 4.440892e-015
      vertex   -1.963398e+002 2.481053e+002 4.440892e-015
    endloop
  endfacet
  facet normal 0.000000e+000 0.000000e+000 -9.950372e-001
    outer loop
      vertex   -1.923398e+002 2.481053e+002 4.440892e-015
      vertex   -1.963398e+002 2.481053e+002 4.440892e-015
      vertex   -1.963398e+002 2.881053e+002 4.440892e-015
    endloop
  endfacet
  facet normal 0.000000e+000 0.000000e+000 -8.204572e-001
    outer loop
      vertex   -1.642500e+002 2.355000e+002 4.440892e-015
      vertex   -1.823398e+002 2.481053e+002 4.440892e-015
      vertex   -1.642500e+002 2.771667e+002 4.440892e-015
    endloop
  endfacet
  facet normal -0.000000e+000 0.000000e+000 -9.999165e-001
    outer loop
      vertex   -1.642500e+002 2.771667e+002 4.440892e-015
      vertex   -1.823398e+002 2.481053e+002 4.440892e-015
      vertex   -1.823398e+002 2.881053e+002 4.440892e-015
    endloop
  endfacet
  facet normal 0.000000e+000 0.000000e+000 -8.557197e-001
    outer loop
      vertex   -1.642500e+002 2.771667e+002 4.440892e-015
      vertex   -1.823398e+002 2.881053e+002 4.440892e-015
      vertex   -1.642500e+002 3.188333e+002 4.440892e-015
    endloop
  endfacet
  facet normal 0.000000e+000 0.000000e+000 -6.936739e-002
    outer loop
      vertex   -1.642500e+002 3.188333e+002 4.440892e-015
      vertex   -1.823398e+002 2.881053e+002 4.440892e-015
      vertex   -1.853398e+002 2.881053e+002 4.440892e-015
    endloop
  endfacet
  facet normal -0.000000e+000 0.000000e+000 -8.244888e-001
    outer loop
      vertex   -1.642500e+002 3.188333e+002 4.440892e-015
      vertex   -1.853398e+002 2.881053e+002 4.440892e-015
      vertex   -2.042500e+002 3.188333e+002 4.440892e-015
    endloop
  endfacet
  facet normal 0.000000e+000 0.000000e+000 -9.974117e-002
    outer loop
      vertex   -2.042500e+002 3.188333e+002 4.440892e-015
      vertex   -1.853398e+002 2.881053e+002 4.440892e-015
      vertex   -1.893398e+002 2.881053e+002 4.440892e-015
    endloop
  endfacet
  facet normal 0.000000e+000 0.000000e+000 -8.189947e-002
    outer loop
      vertex   -2.042500e+002 3.188333e+002 4.440892e-015
      vertex   -1.893398e+002 2.881053e+002 4.440892e-015
      vertex   -1.923398e+002 2.881053e+002 4.440892e-015
    endloop
  endfacet
  facet normal -0.000000e+000 -0.000000e+000 -1.000000e+000
    outer loop
      vertex   -1.853398e+002 2.881053e+002 4.440892e-015
      vertex   -1.853398e+002 2.481053e+002 4.440892e-015
      vertex   -1.893398e+002 2.881053e+002 4.440892e-015
    endloop
  endfacet
  facet normal 0.000000e+000 0.000000e+000 -9.950376e-002
    outer loop
      vertex   -1.893398e+002 2.881053e+002 4.440892e-015
      vertex   -1.853398e+002 2.481053e+002 4.440892e-015
      vertex   -1.893398e+002 2.481053e+002 4.440892e-015
    endloop
  endfacet
  facet normal 0.000000e+000 0.000000e+000 -9.874724e-001
    outer loop
      vertex   -1.993398e+002 2.881053e+002 4.440892e-015
      vertex   -2.042500e+002 3.188333e+002 4.440892e-015
      vertex   -1.963398e+002 2.881053e+002 4.440892e-015
    endloop
  endfacet
  facet normal 0.000000e+000 0.000000e+000 -9.684271e-001
    outer loop
      vertex   -1.963398e+002 2.881053e+002 4.440892e-015
      vertex   -2.042500e+002 3.188333e+002 4.440892e-015
      vertex   -1.923398e+002 2.881053e+002 4.440892e-015
    endloop
  endfacet
  facet normal 0.000000e+000 0.000000e+000 -9.950372e-001
    outer loop
      vertex   -1.963398e+002 2.881053e+002 4.440892e-015
      vertex   -1.923398e+002 2.881053e+002 4.440892e-015
      vertex   -1.923398e+002 2.481053e+002 4.440892e-015
    endloop
  endfacet
  facet normal 0.000000e+000 0.000000e+000 -1.000000e+000
    outer loop
      vertex   -2.042500e+002 3.605000e+002 4.440892e-015
      vertex   -1.642500e+002 3.605000e+002 4.440892e-015
      vertex   -2.042500e+002 3.188333e+002 4.440892e-015
    endloop
  endfacet
  facet normal 0.000000e+000 0.000000e+000 -7.213872e-001
    outer loop
      vertex   -2.042500e+002 3.188333e+002 4.440892e-015
      vertex   -1.642500e+002 3.605000e+002 4.440892e-015
      vertex   -1.642500e+002 3.188333e+002 4.440892e-015
    endloop
  endfacet
  facet normal -0.000000e+000 0.000000e+000 1.000000e+000
    outer loop
      vertex   -2.042500e+002 2.370000e+002 4.150000e+001
      vertex   -2.042500e+002 2.355000e+002 4.150000e+001
      vertex   -1.657500e+002 2.370000e+002 4.150000e+001
    endloop
  endfacet
  facet normal 0.000000e+000 0.000000e+000 7.340994e-001
    outer loop
      vertex   -1.657500e+002 2.370000e+002 4.150000e+001
      vertex   -2.042500e+002 2.355000e+002 4.150000e+001
      vertex   -1.642500e+002 2.355000e+002 4.150000e+001
    endloop
  endfacet
  facet normal -0.000000e+000 0.000000e+000 7.330023e-001
    outer loop
      vertex   -1.657500e+002 2.370000e+002 4.150000e+001
      vertex   -1.642500e+002 2.355000e+002 4.150000e+001
      vertex   -1.642500e+002 2.771667e+002 4.150000e+001
    endloop
  endfacet
  facet normal 0.000000e+000 0.000000e+000 1.000000e+000
    outer loop
      vertex   -2.042500e+002 2.370000e+002 4.150000e+001
      vertex   -2.427500e+002 2.370000e+002 4.150000e+001
      vertex   -2.042500e+002 2.355000e+002 4.150000e+001
    endloop
  endfacet
  facet normal 0.000000e+000 0.000000e+000 3.893150e-002
    outer loop
      vertex   -2.042500e+002 2.355000e+002 4.150000e+001
      vertex   -2.427500e+002 2.370000e+002 4.150000e+001
      vertex   -2.442500e+002 2.355000e+002 4.150000e+001
    endloop
  endfacet
  facet normal 0.000000e+000 0.000000e+000 7.071068e-001
    outer loop
      vertex   -2.442500e+002 2.355000e+002 4.150000e+001
      vertex   -2.427500e+002 2.370000e+002 4.150000e+001
      vertex   -2.442500e+002 2.771667e+002 4.150000e+001
    endloop
  endfacet
  facet normal -0.000000e+000 0.000000e+000 9.598236e-001
    outer loop
      vertex   -2.442500e+002 2.771667e+002 4.150000e+001
      vertex   -2.427500e+002 2.370000e+002 4.150000e+001
      vertex   -2.427500e+002 2.776667e+002 4.150000e+001
    endloop
  endfacet
  facet normal 0.000000e+000 0.000000e+000 9.365394e-001
    outer loop
      vertex   -2.442500e+002 2.771667e+002 4.150000e+001
      vertex   -2.427500e+002 2.776667e+002 4.150000e+001
      vertex   -2.427500e+002 3.183333e+002 4.150000e+001
    endloop
  endfacet
  facet normal 0.000000e+000 0.000000e+000 3.641307e-002
    outer loop
      vertex   -2.442500e+002 2.771667e+002 4.150000e+001
      vertex   -2.427500e+002 3.183333e+002 4.150000e+001
      vertex   -2.442500e+002 3.188333e+002 4.150000e+001
    endloop
  endfacet
  facet normal -0.000000e+000 0.000000e+000 9.598236e-001
    outer loop
      vertex   -2.442500e+002 3.188333e+002 4.150000e+001
      vertex   -2.427500e+002 3.183333e+002 4.150000e+001
      vertex   -2.427500e+002 3.590000e+002 4.150000e+001
    endloop
  endfacet
  facet normal 0.000000e+000 0.000000e+000 3.731839e-002
    outer loop
      vertex   -2.442500e+002 3.188333e+002 4.150000e+001
      vertex   -2.427500e+002 3.590000e+002 4.150000e+001
      vertex   -2.442500e+002 3.605000e+002 4.150000e+001
    endloop
  endfacet
  facet normal -0.000000e+000 0.000000e+000 7.071068e-001
    outer loop
      vertex   -2.442500e+002 3.605000e+002 4.150000e+001
      vertex   -2.427500e+002 3.590000e+002 4.150000e+001
      vertex   -2.042500e+002 3.605000e+002 4.150000e+001
    endloop
  endfacet
  facet normal 0.000000e+000 0.000000e+000 9.992419e-001
    outer loop
      vertex   -2.042500e+002 3.605000e+002 4.150000e+001
      vertex   -2.427500e+002 3.590000e+002 4.150000e+001
      vertex   -2.042500e+002 3.590000e+002 4.150000e+001
    endloop
  endfacet
  facet normal 0.000000e+000 0.000000e+000 9.992419e-001
    outer loop
      vertex   -2.042500e+002 3.605000e+002 4.150000e+001
      vertex   -2.042500e+002 3.590000e+002 4.150000e+001
      vertex   -1.657500e+002 3.590000e+002 4.150000e+001
    endloop
  endfacet
  facet normal 0.000000e+000 0.000000e+000 9.486833e-001
    outer loop
      vertex   -1.657500e+002 3.183333e+002 4.150000e+001
      vertex   -1.642500e+002 3.188333e+002 4.150000e+001
      vertex   -1.657500e+002 3.590000e+002 4.150000e+001
    endloop
  endfacet
  facet normal -0.000000e+000 0.000000e+000 7.330023e-001
    outer loop
      vertex   -1.657500e+002 3.590000e+002 4.150000e+001
      vertex   -1.642500e+002 3.188333e+002 4.150000e+001
      vertex   -1.642500e+002 3.605000e+002 4.150000e+001
    endloop
  endfacet
  facet normal 0.000000e+000 -0.000000e+000 7.340994e-001
    outer loop
      vertex   -1.657500e+002 3.590000e+002 4.150000e+001
      vertex   -1.642500e+002 3.605000e+002 4.150000e+001
      vertex   -2.042500e+002 3.605000e+002 4.150000e+001
    endloop
  endfacet
  facet normal 0.000000e+000 0.000000e+000 9.486833e-001
    outer loop
      vertex   -1.642500e+002 3.188333e+002 4.150000e+001
      vertex   -1.657500e+002 3.183333e+002 4.150000e+001
      vertex   -1.642500e+002 2.771667e+002 4.150000e+001
    endloop
  endfacet
  facet normal 0.000000e+000 0.000000e+000 9.365394e-001
    outer loop
      vertex   -1.642500e+002 2.771667e+002 4.150000e+001
      vertex   -1.657500e+002 3.183333e+002 4.150000e+001
      vertex   -1.657500e+002 2.776667e+002 4.150000e+001
    endloop
  endfacet
  facet normal 0.000000e+000 0.000000e+000 9.598236e-001
    outer loop
      vertex   -1.642500e+002 2.771667e+002 4.150000e+001
      vertex   -1.657500e+002 2.776667e+002 4.150000e+001
      vertex   -1.657500e+002 2.370000e+002 4.150000e+001
    endloop
  endfacet
  facet normal 0.000000e+000 -1.000000e+000 0.000000e+000
    outer loop
      vertex   -1.642500e+002 2.355000e+002 4.440892e-015
      vertex   -1.642500e+002 2.355000e+002 4.150000e+001
      vertex   -2.042500e+002 2.355000e+002 4.440892e-015
    endloop
  endfacet
  facet normal 0.000000e+000 -6.939750e-001 0.000000e+000
    outer loop
      vertex   -2.042500e+002 2.355000e+002 4.440892e-015
      vertex   -1.642500e+002 2.355000e+002 4.150000e+001
      vertex   -2.042500e+002 2.355000e+002 4.150000e+001
    endloop
  endfacet
  facet normal 0.000000e+000 -1.000000e+000 0.000000e+000
    outer loop
      vertex   -2.042500e+002 2.355000e+002 4.440892e-015
      vertex   -2.042500e+002 2.355000e+002 4.150000e+001
      vertex   -2.442500e+002 2.355000e+002 2.220446e-014
    endloop
  endfacet
  facet normal 0.000000e+000 -6.939750e-001 0.000000e+000
    outer loop
      vertex   -2.442500e+002 2.355000e+002 2.220446e-014
      vertex   -2.042500e+002 2.355000e+002 4.150000e+001
      vertex   -2.442500e+002 2.355000e+002 4.150000e+001
    endloop
  endfacet
  facet normal 1.000000e+000 0.000000e+000 -0.000000e+000
    outer loop
      vertex   -1.642500e+002 3.605000e+002 4.440892e-015
      vertex   -1.642500e+002 3.605000e+002 4.150000e+001
      vertex   -1.642500e+002 3.188333e+002 4.440892e-015
    endloop
  endfacet
  facet normal 7.085223e-001 0.000000e+000 0.000000e+000
    outer loop
      vertex   -1.642500e+002 3.188333e+002 4.440892e-015
      vertex   -1.642500e+002 3.605000e+002 4.150000e+001
      vertex   -1.642500e+002 3.188333e+002 4.150000e+001
    endloop
  endfacet
  facet normal 1.000000e+000 0.000000e+000 -0.000000e+000
    outer loop
      vertex   -1.642500e+002 3.188333e+002 4.440892e-015
      vertex   -1.642500e+002 3.188333e+002 4.150000e+001
      vertex   -1.642500e+002 2.771667e+002 4.440892e-015
    endloop
  endfacet
  facet normal 7.085226e-001 0.000000e+000 0.000000e+000
    outer loop
      vertex   -1.642500e+002 2.771667e+002 4.440892e-015
      vertex   -1.642500e+002 3.188333e+002 4.150000e+001
      vertex   -1.642500e+002 2.771667e+002 4.150000e+001
    endloop
  endfacet
  facet normal 1.000000e+000 0.000000e+000 -0.000000e+000
    outer loop
      vertex   -1.642500e+002 2.771667e+002 4.440892e-015
      vertex   -1.642500e+002 2.771667e+002 4.150000e+001
      vertex   -1.642500e+002 2.355000e+002 4.440892e-015
    endloop
  endfacet
  facet normal 7.085223e-001 0.000000e+000 0.000000e+000
    outer loop
      vertex   -1.642500e+002 2.355000e+002 4.440892e-015
      vertex   -1.642500e+002 2.771667e+002 4.150000e+001
      vertex   -1.642500e+002 2.355000e+002 4.150000e+001
    endloop
  endfacet
  facet normal -8.405705e-001 0.000000e+000 0.000000e+000
    outer loop
      vertex   -2.442500e+002 2.820000e+002 3.400000e+001
      vertex   -2.442500e+002 2.771667e+002 4.150000e+001
      vertex   -2.442500e+002 2.920000e+002 3.400000e+001
    endloop
  endfacet
  facet normal -6.747895e-001 0.000000e+000 0.000000e+000
    outer loop
      vertex   -2.442500e+002 2.920000e+002 3.400000e+001
      vertex   -2.442500e+002 2.771667e+002 4.150000e+001
      vertex   -2.442500e+002 3.188333e+002 4.150000e+001
    endloop
  endfacet
  facet normal -9.630882e-001 0.000000e+000 0.000000e+000
    outer loop
      vertex   -2.442500e+002 2.920000e+002 3.400000e+001
      vertex   -2.442500e+002 3.188333e+002 4.150000e+001
      vertex   -2.442500e+002 2.920000e+002 2.400000e+001
    endloop
  endfacet
  facet normal -9.655684e-001 0.000000e+000 0.000000e+000
    outer loop
      vertex   -2.442500e+002 2.920000e+002 2.400000e+001
      vertex   -2.442500e+002 3.188333e+002 4.150000e+001
      vertex   -2.442500e+002 3.188333e+002 2.220446e-014
    endloop
  endfacet
  facet normal -9.845296e-001 0.000000e+000 -0.000000e+000
    outer loop
      vertex   -2.442500e+002 2.920000e+002 2.400000e+001
      vertex   -2.442500e+002 3.188333e+002 2.220446e-014
      vertex   -2.442500e+002 2.771667e+002 2.220446e-014
    endloop
  endfacet
  facet normal -5.417022e-001 -0.000000e+000 -0.000000e+000
    outer loop
      vertex   -2.442500e+002 2.820000e+002 3.400000e+001
      vertex   -2.442500e+002 2.820000e+002 2.400000e+001
      vertex   -2.442500e+002 2.771667e+002 4.150000e+001
    endloop
  endfacet
  facet normal -2.662237e-001 0.000000e+000 0.000000e+000
    outer loop
      vertex   -2.442500e+002 2.771667e+002 4.150000e+001
      vertex   -2.442500e+002 2.820000e+002 2.400000e+001
      vertex   -2.442500e+002 2.771667e+002 2.220446e-014
    endloop
  endfacet
  facet normal -5.798484e-001 0.000000e+000 -0.000000e+000
    outer loop
      vertex   -2.442500e+002 2.771667e+002 4.150000e+001
      vertex   -2.442500e+002 2.771667e+002 2.220446e-014
      vertex   -2.442500e+002 2.640000e+002 2.300000e+001
    endloop
  endfacet
  facet normal -6.732495e-001 0.000000e+000 -0.000000e+000
    outer loop
      vertex   -2.442500e+002 2.640000e+002 2.300000e+001
      vertex   -2.442500e+002 2.771667e+002 2.220446e-014
      vertex   -2.442500e+002 2.630000e+002 1.850000e+001
    endloop
  endfacet
  facet normal -9.761871e-001 -0.000000e+000 0.000000e+000
    outer loop
      vertex   -2.442500e+002 2.640000e+002 2.300000e+001
      vertex   -2.442500e+002 2.630000e+002 1.850000e+001
      vertex   -2.442500e+002 2.515000e+002 2.300000e+001
    endloop
  endfacet
  facet normal -9.881164e-001 0.000000e+000 -0.000000e+000
    outer loop
      vertex   -2.442500e+002 2.515000e+002 2.300000e+001
      vertex   -2.442500e+002 2.630000e+002 1.850000e+001
      vertex   -2.442500e+002 2.505000e+002 1.850000e+001
    endloop
  endfacet
  facet normal -8.026528e-001 -0.000000e+000 0.000000e+000
    outer loop
      vertex   -2.442500e+002 2.515000e+002 2.300000e+001
      vertex   -2.442500e+002 2.505000e+002 1.850000e+001
      vertex   -2.442500e+002 2.355000e+002 4.150000e+001
    endloop
  endfacet
  facet normal -5.462678e-001 0.000000e+000 0.000000e+000
    outer loop
      vertex   -2.442500e+002 2.355000e+002 4.150000e+001
      vertex   -2.442500e+002 2.505000e+002 1.850000e+001
      vertex   -2.442500e+002 2.355000e+002 2.220446e-014
    endloop
  endfacet
  facet normal -4.872970e-001 0.000000e+000 0.000000e+000
    outer loop
      vertex   -2.442500e+002 2.355000e+002 2.220446e-014
      vertex   -2.442500e+002 2.505000e+002 1.850000e+001
      vertex   -2.442500e+002 2.505000e+002 6.000000e+000
    endloop
  endfacet
  facet normal -3.713907e-001 0.000000e+000 0.000000e+000
    outer loop
      vertex   -2.442500e+002 2.355000e+002 2.220446e-014
      vertex   -2.442500e+002 2.505000e+002 6.000000e+000
      vertex   -2.442500e+002 2.771667e+002 2.220446e-014
    endloop
  endfacet
  facet normal -1.783508e-001 0.000000e+000 0.000000e+000
    outer loop
      vertex   -2.442500e+002 2.771667e+002 2.220446e-014
      vertex   -2.442500e+002 2.505000e+002 6.000000e+000
      vertex   -2.442500e+002 2.630000e+002 6.000000e+000
    endloop
  endfacet
  facet normal -4.939762e-001 0.000000e+000 0.000000e+000
    outer loop
      vertex   -2.442500e+002 2.771667e+002 2.220446e-014
      vertex   -2.442500e+002 2.630000e+002 6.000000e+000
      vertex   -2.442500e+002 2.630000e+002 1.850000e+001
    endloop
  endfacet
  facet normal -9.803179e-001 0.000000e+000 -0.000000e+000
    outer loop
      vertex   -2.442500e+002 2.820000e+002 2.400000e+001
      vertex   -2.442500e+002 2.920000e+002 2.400000e+001
      vertex   -2.442500e+002 2.771667e+002 2.220446e-014
    endloop
  endfacet
  facet normal -5.798484e-001 0.000000e+000 0.000000e+000
    outer loop
      vertex   -2.442500e+002 2.640000e+002 2.300000e+001
      vertex   -2.442500e+002 2.640000e+002 3.500000e+001
      vertex   -2.442500e+002 2.771667e+002 4.150000e+001
    endloop
  endfacet
  facet normal -2.089877e-001 0.000000e+000 0.000000e+000
    outer loop
      vertex   -2.442500e+002 2.771667e+002 4.150000e+001
      vertex   -2.442500e+002 2.640000e+002 3.500000e+001
      vertex   -2.442500e+002 2.515000e+002 3.500000e+001
    endloop
  endfacet
  facet normal -2.454968e-001 -0.000000e+000 0.000000e+000
    outer loop
      vertex   -2.442500e+002 2.771667e+002 4.150000e+001
      vertex   -2.442500e+002 2.515000e+002 3.500000e+001
      vertex   -2.442500e+002 2.355000e+002 4.150000e+001
    endloop
  endfacet
  facet normal -4.545374e-001 0.000000e+000 0.000000e+000
    outer loop
      vertex   -2.442500e+002 2.355000e+002 4.150000e+001
      vertex   -2.442500e+002 2.515000e+002 3.500000e+001
      vertex   -2.442500e+002 2.515000e+002 2.300000e+001
    endloop
  endfacet
  facet normal -1.000000e+000 -0.000000e+000 -0.000000e+000
    outer loop
      vertex   -2.442500e+002 3.605000e+002 4.150000e+001
      vertex   -2.442500e+002 3.605000e+002 2.220446e-014
      vertex   -2.442500e+002 3.188333e+002 4.150000e+001
    endloop
  endfacet
  facet normal -7.085223e-001 0.000000e+000 0.000000e+000
    outer loop
      vertex   -2.442500e+002 3.188333e+002 4.150000e+001
      vertex   -2.442500e+002 3.605000e+002 2.220446e-014
      vertex   -2.442500e+002 3.188333e+002 2.220446e-014
    endloop
  endfacet
  facet normal 0.000000e+000 0.000000e+000 1.000000e+000
    outer loop
      vertex   -2.357500e+002 3.590000e+002 3.650000e+001
      vertex   -2.427500e+002 3.590000e+002 3.650000e+001
      vertex   -2.357500e+002 3.589828e+002 3.650000e+001
    endloop
  endfacet
  facet normal 0.000000e+000 0.000000e+000 7.092334e-001
    outer loop
      vertex   -2.357500e+002 3.589828e+002 3.650000e+001
      vertex   -2.427500e+002 3.590000e+002 3.650000e+001
      vertex   -2.427250e+002 3.520000e+002 3.650000e+001
    endloop
  endfacet
  facet normal -0.000000e+000 0.000000e+000 7.075040e-001
    outer loop
      vertex   -2.357500e+002 3.589828e+002 3.650000e+001
      vertex   -2.427250e+002 3.520000e+002 3.650000e+001
      vertex   -2.327421e+002 3.589828e+002 3.650000e+001
    endloop
  endfacet
  facet normal 0.000000e+000 0.000000e+000 1.741260e-001
    outer loop
      vertex   -2.327421e+002 3.589828e+002 3.650000e+001
      vertex   -2.427250e+002 3.520000e+002 3.650000e+001
      vertex   -2.427250e+002 3.490000e+002 3.650000e+001
    endloop
  endfacet
  facet normal 0.000000e+000 0.000000e+000 3.570534e-003
    outer loop
      vertex   -2.427500e+002 3.590000e+002 3.650000e+001
      vertex   -2.427500e+002 3.520000e+002 3.650000e+001
      vertex   -2.427250e+002 3.520000e+002 3.650000e+001
    endloop
  endfacet
  facet normal 0.000000e+000 -1.000000e+000 0.000000e+000
    outer loop
      vertex   -2.427250e+002 3.520000e+002 1.500000e+000
      vertex   -2.427250e+002 3.520000e+002 3.650000e+001
      vertex   -2.427500e+002 3.520000e+002 1.500000e+000
    endloop
  endfacet
  facet normal 0.000000e+000 -7.141111e-004 0.000000e+000
    outer loop
      vertex   -2.427500e+002 3.520000e+002 1.500000e+000
      vertex   -2.427250e+002 3.520000e+002 3.650000e+001
      vertex   -2.427500e+002 3.520000e+002 3.650000e+001
    endloop
  endfacet
  facet normal 0.000000e+000 -0.000000e+000 1.000000e+000
    outer loop
      vertex   -1.657500e+002 2.370000e+002 3.650000e+001
      vertex   -1.657500e+002 2.469750e+002 3.650000e+001
      vertex   -1.757250e+002 2.370000e+002 3.650000e+001
    endloop
  endfacet
endsolid
